<svg width="20" height="20" viewBox="0 0 20 20" fill="none" xmlns="http://www.w3.org/2000/svg">
<path opacity="0.4" d="M13.3962 1.66675H16.2178C17.3864 1.66675 18.3333 2.62162 18.3333 3.80005V6.64552C18.3333 7.82395 17.3864 8.77882 16.2178 8.77882H13.3962C12.2276 8.77882 11.2808 7.82395 11.2808 6.64552V3.80005C11.2808 2.62162 12.2276 1.66675 13.3962 1.66675Z" fill="#24B9EA"/>
<path fill-rule="evenodd" clip-rule="evenodd" d="M3.78227 1.66675H6.6039C7.77246 1.66675 8.71934 2.62162 8.71934 3.80005V6.64552C8.71934 7.82395 7.77246 8.77882 6.6039 8.77882H3.78227C2.61371 8.77882 1.66683 7.82395 1.66683 6.64552V3.80005C1.66683 2.62162 2.61371 1.66675 3.78227 1.66675ZM3.78218 11.2213H6.60382C7.77238 11.2213 8.71926 12.1761 8.71926 13.3546V16.2C8.71926 17.3777 7.77238 18.3333 6.60382 18.3333H3.78218C2.61363 18.3333 1.66675 17.3777 1.66675 16.2V13.3546C1.66675 12.1761 2.61363 11.2213 3.78218 11.2213ZM16.2179 11.2213H13.3962C12.2277 11.2213 11.2808 12.1761 11.2808 13.3546V16.2C11.2808 17.3777 12.2277 18.3333 13.3962 18.3333H16.2179C17.3864 18.3333 18.3333 17.3777 18.3333 16.2V13.3546C18.3333 12.1761 17.3864 11.2213 16.2179 11.2213Z" fill="#24B9EA"/>
</svg>
