<svg width="20" height="20" viewBox="0 0 20 20" fill="none" xmlns="http://www.w3.org/2000/svg">
<path opacity="0.4" d="M15.6741 7.51746C15.2978 7.51746 14.7995 7.50913 14.179 7.50913C12.6657 7.50913 11.4214 6.25663 11.4214 4.72913V2.04913C11.4214 1.83829 11.253 1.66663 11.0443 1.66663H6.63644C4.57939 1.66663 2.91675 3.35496 2.91675 5.42413V14.4033C2.91675 16.5741 4.6586 18.3333 6.80806 18.3333H13.372C15.4216 18.3333 17.0834 16.6558 17.0834 14.585V7.89246C17.0834 7.68079 16.9159 7.50996 16.7063 7.51079C16.354 7.51329 15.9315 7.51746 15.6741 7.51746Z" fill="#909090"/>
<path opacity="0.4" d="M13.4034 2.13935C13.1542 1.88019 12.7192 2.05852 12.7192 2.41769V4.61519C12.7192 5.53685 13.4784 6.29519 14.4001 6.29519C14.9809 6.30185 15.7876 6.30352 16.4726 6.30185C16.8234 6.30102 17.0017 5.88185 16.7584 5.62852C15.8792 4.71435 14.3051 3.07602 13.4034 2.13935Z" fill="#909090"/>
<path fill-rule="evenodd" clip-rule="evenodd" d="M7.47848 9.48961H10.2993C10.6418 9.48961 10.9201 9.21211 10.9201 8.86961C10.9201 8.52711 10.6418 8.24878 10.2993 8.24878H7.47848C7.13598 8.24878 6.85848 8.52711 6.85848 8.86961C6.85848 9.21211 7.13598 9.48961 7.47848 9.48961ZM7.4784 13.6514H12.0151C12.3576 13.6514 12.6359 13.3739 12.6359 13.0314C12.6359 12.6889 12.3576 12.4105 12.0151 12.4105H7.4784C7.1359 12.4105 6.8584 12.6889 6.8584 13.0314C6.8584 13.3739 7.1359 13.6514 7.4784 13.6514Z" fill="#909090"/>
</svg>
