<svg width="180" height="52" viewBox="0 0 180 52" fill="none" xmlns="http://www.w3.org/2000/svg">
<path d="M173.351 52H7.1251C3.40165 52 0.476074 49.14 0.476074 45.5V6.5C0.476074 2.86 3.40165 0 7.1251 0H173.351C177.074 0 180 2.86 180 6.5V45.5C180 49.14 177.074 52 173.351 52Z" fill="white"/>
<path d="M173.351 1.04C176.409 1.04 178.936 3.51 178.936 6.5V45.5C178.936 48.49 176.409 50.96 173.351 50.96H7.1251C4.06655 50.96 1.53992 48.49 1.53992 45.5V6.5C1.53992 3.51 4.06655 1.04 7.1251 1.04H173.351ZM173.351 0H7.1251C3.40165 0 0.476074 2.99 0.476074 6.5V45.5C0.476074 49.14 3.40165 52 7.1251 52H173.351C177.074 52 180 49.14 180 45.5V6.5C180 2.99 177.074 0 173.351 0Z" fill="#A6A6A6"/>
<path d="M45.174 30.4917H13.1509V33.3509C13.1509 33.8059 13.3316 34.2422 13.6533 34.564C13.9751 34.8857 14.4114 35.0664 14.8664 35.0664H43.4585C43.9135 35.0664 44.3498 34.8857 44.6715 34.564C44.9933 34.2422 45.174 33.8059 45.174 33.3509V30.4917ZM29.1624 34.4946C28.8231 34.4946 28.4915 34.394 28.2093 34.2055C27.9272 34.017 27.7073 33.749 27.5775 33.4356C27.4477 33.1221 27.4137 32.7772 27.4799 32.4444C27.5461 32.1116 27.7095 31.8059 27.9494 31.566C28.1893 31.3261 28.495 31.1627 28.8278 31.0965C29.1605 31.0303 29.5055 31.0643 29.8189 31.1941C30.1324 31.324 30.4003 31.5439 30.5888 31.826C30.7773 32.1081 30.878 32.4398 30.878 32.7791C30.878 33.234 30.6972 33.6704 30.3755 33.9921C30.0538 34.3138 29.6174 34.4946 29.1624 34.4946Z" fill="black"/>
<path d="M29.1622 33.3507C29.478 33.3507 29.734 33.0947 29.734 32.7789C29.734 32.4631 29.478 32.207 29.1622 32.207C28.8464 32.207 28.5903 32.4631 28.5903 32.7789C28.5903 33.0947 28.8464 33.3507 29.1622 33.3507Z" fill="black"/>
<path d="M37.1683 41.3565C37.1683 41.2048 37.108 41.0594 37.0008 40.9522C36.8936 40.8449 36.7481 40.7847 36.5965 40.7847H21.7286C21.5769 40.7847 21.4315 40.8449 21.3242 40.9522C21.217 41.0594 21.1567 41.2048 21.1567 41.3565V41.9284H37.1683V41.3565Z" fill="black"/>
<path d="M45.174 11.6203C45.174 11.1653 44.9933 10.729 44.6715 10.4073C44.3498 10.0855 43.9135 9.90479 43.4585 9.90479H14.8664C14.4114 9.90479 13.9751 10.0855 13.6533 10.4073C13.3316 10.729 13.1509 11.1653 13.1509 11.6203V29.3474H45.174V11.6203Z" fill="black"/>
<path d="M25.5562 36.2092L24.2695 39.6403H34.056L32.7694 36.2092H25.5562Z" fill="black"/>
<path d="M63.6191 26.6686H66.5831L69.302 37.0091L69.6586 39.0149H69.7254L70.0374 37.0091L72.9346 26.6686H75.698L78.5729 37.0091L78.9071 39.0149H78.974L79.3083 37.0091L82.0494 26.6686H85.0134L80.4894 42.2686H77.5254L74.3163 30.4349L71.1071 42.2686H68.1431L63.6191 26.6686Z" fill="black"/>
<path d="M90.9447 42.4914C89.8453 42.4914 88.8722 42.2537 88.0253 41.7783C87.1784 41.288 86.5247 40.6046 86.0642 39.728C85.6036 38.8514 85.3733 37.8411 85.3733 36.6971C85.3733 35.568 85.6259 34.5651 86.131 33.6886C86.651 32.812 87.3344 32.1286 88.1813 31.6383C89.0282 31.148 89.9493 30.9029 90.9447 30.9029C91.9996 30.9029 92.9356 31.1331 93.7527 31.5937C94.5847 32.0394 95.231 32.6931 95.6916 33.5549C96.1522 34.4166 96.3824 35.4343 96.3824 36.608V37.388H87.847C87.9064 38.2943 88.2184 39.0149 88.783 39.5497C89.3624 40.0697 90.0979 40.3297 90.9893 40.3297C91.747 40.3297 92.371 40.1589 92.8613 39.8171C93.3516 39.4606 93.7007 38.9777 93.9087 38.3686L96.1373 38.5023L96.2042 38.6137C95.8476 39.8617 95.2162 40.82 94.3099 41.4886C93.4184 42.1571 92.2967 42.4914 90.9447 42.4914ZM93.9756 35.5383C93.9013 34.736 93.5819 34.112 93.0173 33.6663C92.4676 33.2057 91.7767 32.9754 90.9447 32.9754C90.1722 32.9754 89.5036 33.2057 88.939 33.6663C88.3893 34.112 88.0402 34.736 87.8916 35.5383H93.9756Z" fill="black"/>
<path d="M104.638 42.4914C103.197 42.4914 102.009 42.0086 101.073 41.0429V42.2686H98.532V26H101.073V32.24C101.518 31.824 102.038 31.4971 102.633 31.2594C103.242 31.0217 103.91 30.9029 104.638 30.9029C105.589 30.9029 106.451 31.1331 107.223 31.5937C108.011 32.0394 108.635 32.7006 109.095 33.5771C109.571 34.4537 109.809 35.4937 109.809 36.6971C109.809 37.9006 109.563 38.9406 109.073 39.8171C108.598 40.6937 107.959 41.3623 107.157 41.8229C106.369 42.2686 105.53 42.4914 104.638 42.4914ZM104.059 40.3074C104.995 40.3074 105.76 40.0029 106.354 39.3937C106.949 38.7697 107.246 37.8709 107.246 36.6971C107.246 35.5234 106.949 34.632 106.354 34.0229C105.76 33.3989 104.995 33.0869 104.059 33.0869C103.524 33.0869 103.026 33.2131 102.566 33.4657C102.105 33.7034 101.741 34.0377 101.474 34.4686C101.206 34.8994 101.073 35.3749 101.073 35.8949V37.5217C101.073 38.0417 101.206 38.5171 101.474 38.948C101.756 39.364 102.127 39.6983 102.588 39.9509C103.049 40.1886 103.539 40.3074 104.059 40.3074Z" fill="black"/>
<path d="M119.69 26.6686H122.364L113.896 42.2686H111.221L119.69 26.6686Z" fill="black"/>
<path d="M124.432 26.6686H130.227C131.415 26.6686 132.455 26.8766 133.347 27.2926C134.253 27.7086 134.951 28.3103 135.442 29.0977C135.947 29.8851 136.199 30.8137 136.199 31.8834C136.199 32.968 135.947 33.904 135.442 34.6914C134.951 35.4789 134.253 36.0806 133.347 36.4966C132.455 36.9126 131.415 37.1206 130.227 37.1206H127.218V42.2686H124.432V26.6686ZM130.138 34.6691C132.322 34.6691 133.414 33.7406 133.414 31.8834C133.414 30.0411 132.322 29.12 130.138 29.12H127.218V34.6691H130.138Z" fill="black"/>
<path d="M145.826 42.4914C144.385 42.4914 143.063 42.1571 141.859 41.4886C140.656 40.82 139.698 39.8766 138.985 38.6583C138.286 37.44 137.937 36.0434 137.937 34.4686C137.937 32.8937 138.286 31.4971 138.985 30.2789C139.698 29.0606 140.656 28.1171 141.859 27.4486C143.063 26.78 144.385 26.4457 145.826 26.4457C147.074 26.4457 148.189 26.6686 149.169 27.1143C150.165 27.5451 150.974 28.1617 151.598 28.964C152.237 29.7514 152.668 30.6577 152.891 31.6829L152.802 31.8611L150.194 32.0617C149.912 31.0811 149.385 30.316 148.612 29.7663C147.839 29.2166 146.896 28.9417 145.782 28.9417C144.771 28.9417 143.88 29.1794 143.107 29.6549C142.35 30.1154 141.763 30.7691 141.347 31.616C140.946 32.448 140.745 33.3989 140.745 34.4686C140.745 35.5383 140.953 36.4966 141.369 37.3434C141.785 38.1754 142.372 38.8291 143.13 39.3046C143.902 39.7651 144.801 39.9954 145.826 39.9954C146.926 39.9954 147.854 39.7206 148.612 39.1709C149.37 38.6211 149.897 37.856 150.194 36.8754L152.779 37.076L152.891 37.2543C152.475 38.8886 151.643 40.1737 150.395 41.1097C149.162 42.0309 147.639 42.4914 145.826 42.4914Z" fill="black"/>
<path d="M63.6191 9.11246H66.6203C67.7395 9.11246 68.7052 9.33037 69.5174 9.76618C70.3395 10.1921 70.9685 10.7963 71.4043 11.5787C71.8401 12.3612 72.058 13.2725 72.058 14.3125C72.058 15.3525 71.8401 16.2637 71.4043 17.0462C70.9685 17.8287 70.3395 18.4378 69.5174 18.8736C68.7052 19.2995 67.7395 19.5125 66.6203 19.5125H63.6191V9.11246ZM66.5609 18.205C67.8287 18.205 68.8241 17.8881 69.5471 17.2542C70.2702 16.6104 70.6317 15.6298 70.6317 14.3125C70.6317 12.9951 70.2702 12.0195 69.5471 11.3856C68.8241 10.7418 67.8287 10.4199 66.5609 10.4199H65.0454V18.205H66.5609Z" fill="black"/>
<path d="M77.2205 19.661C76.4776 19.661 75.814 19.4976 75.2296 19.1707C74.6552 18.834 74.2045 18.3734 73.8776 17.789C73.5607 17.1947 73.4022 16.5311 73.4022 15.7982C73.4022 15.0652 73.5607 14.4066 73.8776 13.8222C74.2045 13.2279 74.6552 12.7673 75.2296 12.4405C75.814 12.1037 76.4776 11.9353 77.2205 11.9353C77.9634 11.9353 78.622 12.1037 79.1965 12.4405C79.7809 12.7673 80.2316 13.2279 80.5485 13.8222C80.8754 14.4066 81.0388 15.0652 81.0388 15.7982C81.0388 16.5311 80.8754 17.1947 80.5485 17.789C80.2316 18.3734 79.7809 18.834 79.1965 19.1707C78.622 19.4976 77.9634 19.661 77.2205 19.661ZM77.2205 18.4725C77.9535 18.4725 78.5527 18.2397 79.0182 17.7742C79.4936 17.3087 79.7314 16.65 79.7314 15.7982C79.7314 14.9464 79.4936 14.2877 79.0182 13.8222C78.5527 13.3567 77.9535 13.1239 77.2205 13.1239C76.4876 13.1239 75.8834 13.3567 75.4079 13.8222C74.9424 14.2877 74.7096 14.9464 74.7096 15.7982C74.7096 16.65 74.9424 17.3087 75.4079 17.7742C75.8834 18.2397 76.4876 18.4725 77.2205 18.4725Z" fill="black"/>
<path d="M81.7531 12.0839H83.1348L84.5314 16.8827L84.7394 18.205L84.9771 16.8827L86.4034 12.0839H87.7257L89.1371 16.8827L89.3897 18.205L89.5977 16.8827L90.9942 12.0839H92.376L90.1474 19.5125H88.6914L87.0571 13.5993L85.4377 19.5125H83.9817L81.7531 12.0839Z" fill="black"/>
<path d="M93.6802 12.0839H94.9877V13.0496C95.2749 12.7426 95.6513 12.4801 96.1168 12.2622C96.5823 12.0443 97.0726 11.9353 97.5877 11.9353C98.3702 11.9353 98.9743 12.1532 99.4002 12.589C99.8261 13.0248 100.039 13.6241 100.039 14.3867V19.5125H98.7317V14.6245C98.7317 14.1292 98.598 13.7528 98.3305 13.4953C98.073 13.2279 97.7016 13.0942 97.2162 13.0942C96.7903 13.0942 96.3842 13.2229 95.998 13.4805C95.6216 13.738 95.2848 14.0847 94.9877 14.5205V19.5125H93.6802V12.0839Z" fill="black"/>
<path d="M101.936 8.66675H103.243V19.5125H101.936V8.66675Z" fill="black"/>
<path d="M108.632 19.661C107.889 19.661 107.226 19.4976 106.641 19.1707C106.067 18.834 105.616 18.3734 105.289 17.789C104.973 17.1947 104.814 16.5311 104.814 15.7982C104.814 15.0652 104.973 14.4066 105.289 13.8222C105.616 13.2279 106.067 12.7673 106.641 12.4405C107.226 12.1037 107.889 11.9353 108.632 11.9353C109.375 11.9353 110.034 12.1037 110.608 12.4405C111.193 12.7673 111.643 13.2279 111.96 13.8222C112.287 14.4066 112.451 15.0652 112.451 15.7982C112.451 16.5311 112.287 17.1947 111.96 17.789C111.643 18.3734 111.193 18.834 110.608 19.1707C110.034 19.4976 109.375 19.661 108.632 19.661ZM108.632 18.4725C109.365 18.4725 109.965 18.2397 110.43 17.7742C110.905 17.3087 111.143 16.65 111.143 15.7982C111.143 14.9464 110.905 14.2877 110.43 13.8222C109.965 13.3567 109.365 13.1239 108.632 13.1239C107.899 13.1239 107.295 13.3567 106.82 13.8222C106.354 14.2877 106.121 14.9464 106.121 15.7982C106.121 16.65 106.354 17.3087 106.82 17.7742C107.295 18.2397 107.899 18.4725 108.632 18.4725Z" fill="black"/>
<path d="M116.027 19.661C115.324 19.661 114.755 19.4679 114.319 19.0816C113.883 18.6854 113.665 18.1605 113.665 17.5067C113.665 16.8134 113.903 16.2687 114.378 15.8725C114.854 15.4763 115.453 15.2435 116.176 15.1742L118.494 14.9365V14.4313C118.494 14.0054 118.34 13.6835 118.033 13.4656C117.736 13.2378 117.34 13.1239 116.845 13.1239C116.429 13.1239 116.077 13.2229 115.79 13.421C115.512 13.6191 115.324 13.9212 115.225 14.3273H113.992C114.101 13.5448 114.433 12.9506 114.987 12.5445C115.552 12.1384 116.201 11.9353 116.934 11.9353C117.805 11.9353 118.499 12.1532 119.014 12.589C119.539 13.0149 119.801 13.5795 119.801 14.2827V17.7593C119.801 18.0069 119.856 18.2001 119.965 18.3387C120.074 18.4675 120.237 18.5319 120.455 18.5319C120.584 18.5319 120.712 18.5121 120.841 18.4725V19.453C120.544 19.5521 120.267 19.6016 120.009 19.6016C119.207 19.6016 118.717 19.2153 118.538 18.4427C118.251 18.7696 117.88 19.0568 117.424 19.3045C116.968 19.5422 116.503 19.661 116.027 19.661ZM116.176 18.4725C116.949 18.4725 117.721 18.0862 118.494 17.3136V15.9765L116.265 16.229C115.849 16.2786 115.527 16.4172 115.299 16.645C115.082 16.8629 114.973 17.1304 114.973 17.4473C114.973 17.7841 115.082 18.0416 115.299 18.2199C115.527 18.3883 115.819 18.4725 116.176 18.4725Z" fill="black"/>
<path d="M124.858 19.661C124.244 19.661 123.674 19.5026 123.15 19.1856C122.634 18.8687 122.223 18.418 121.916 17.8336C121.609 17.2492 121.456 16.5707 121.456 15.7982C121.456 15.0256 121.599 14.3471 121.887 13.7627C122.174 13.1784 122.575 12.7277 123.09 12.4107C123.605 12.0938 124.185 11.9353 124.828 11.9353C125.304 11.9353 125.75 12.0195 126.166 12.1879C126.591 12.3464 126.943 12.5742 127.22 12.8713V8.66675H128.528V19.5125H127.22V18.6953C126.963 18.9627 126.636 19.1906 126.24 19.3787C125.844 19.5669 125.383 19.661 124.858 19.661ZM125.066 18.4725C125.452 18.4725 125.809 18.3833 126.136 18.205C126.473 18.0267 126.735 17.789 126.923 17.4919C127.121 17.1947 127.22 16.8728 127.22 16.5262V15.0999C127.22 14.7532 127.121 14.4313 126.923 14.1342C126.725 13.8271 126.463 13.5845 126.136 13.4062C125.809 13.218 125.452 13.1239 125.066 13.1239C124.393 13.1239 123.838 13.3467 123.402 13.7925C122.976 14.2382 122.763 14.9067 122.763 15.7982C122.763 16.6896 122.976 17.3582 123.402 17.8039C123.838 18.2496 124.393 18.4725 125.066 18.4725Z" fill="black"/>
<path d="M137.041 19.661C136.298 19.661 135.634 19.4976 135.05 19.1707C134.475 18.834 134.025 18.3734 133.698 17.789C133.381 17.1947 133.223 16.5311 133.223 15.7982C133.223 15.0652 133.381 14.4066 133.698 13.8222C134.025 13.2279 134.475 12.7673 135.05 12.4405C135.634 12.1037 136.298 11.9353 137.041 11.9353C137.784 11.9353 138.442 12.1037 139.017 12.4405C139.601 12.7673 140.052 13.2279 140.369 13.8222C140.696 14.4066 140.859 15.0652 140.859 15.7982C140.859 16.5311 140.696 17.1947 140.369 17.789C140.052 18.3734 139.601 18.834 139.017 19.1707C138.442 19.4976 137.784 19.661 137.041 19.661ZM137.041 18.4725C137.774 18.4725 138.373 18.2397 138.839 17.7742C139.314 17.3087 139.552 16.65 139.552 15.7982C139.552 14.9464 139.314 14.2877 138.839 13.8222C138.373 13.3567 137.774 13.1239 137.041 13.1239C136.308 13.1239 135.704 13.3567 135.228 13.8222C134.763 14.2877 134.53 14.9464 134.53 15.7982C134.53 16.65 134.763 17.3087 135.228 17.7742C135.704 18.2397 136.308 18.4725 137.041 18.4725Z" fill="black"/>
<path d="M142.43 12.0839H143.738V13.0496C144.025 12.7426 144.401 12.4801 144.867 12.2622C145.332 12.0443 145.823 11.9353 146.338 11.9353C147.12 11.9353 147.724 12.1532 148.15 12.589C148.576 13.0248 148.789 13.6241 148.789 14.3867V19.5125H147.482V14.6245C147.482 14.1292 147.348 13.7528 147.081 13.4953C146.823 13.2279 146.452 13.0942 145.966 13.0942C145.54 13.0942 145.134 13.2229 144.748 13.4805C144.372 13.738 144.035 14.0847 143.738 14.5205V19.5125H142.43V12.0839Z" fill="black"/>
</svg>
