<svg width="180" height="52" viewBox="0 0 180 52" fill="none" xmlns="http://www.w3.org/2000/svg">
<path d="M172.875 52H6.64903C2.92557 52 0 49.14 0 45.5V6.5C0 2.86 2.92557 0 6.64903 0H172.875C176.598 0 179.524 2.86 179.524 6.5V45.5C179.524 49.14 176.598 52 172.875 52Z" fill="#121826"/>
<path d="M172.875 1.04C175.933 1.04 178.46 3.51 178.46 6.5V45.5C178.46 48.49 175.933 50.96 172.875 50.96H6.64903C3.59048 50.96 1.06384 48.49 1.06384 45.5V6.5C1.06384 3.51 3.59048 1.04 6.64903 1.04H172.875ZM172.875 0H6.64903C2.92557 0 0 2.99 0 6.5V45.5C0 49.14 2.92557 52 6.64903 52H172.875C176.598 52 179.524 49.14 179.524 45.5V6.5C179.524 2.99 176.598 0 172.875 0Z" fill="#A6A6A6"/>
<rect x="13.8188" y="8.66675" width="19.4101" height="33.4286" rx="1.67742" fill="white"/>
<circle cx="23.5239" cy="37.7822" r="2.15668" fill="#7C7C7C"/>
<path d="M52 9.11246H55.0011C56.1204 9.11246 57.0861 9.33037 57.8983 9.76618C58.7204 10.1921 59.3493 10.7963 59.7851 11.5787C60.221 12.3612 60.4389 13.2725 60.4389 14.3125C60.4389 15.3525 60.221 16.2637 59.7851 17.0462C59.3493 17.8287 58.7204 18.4378 57.8983 18.8736C57.0861 19.2995 56.1204 19.5125 55.0011 19.5125H52V9.11246ZM54.9417 18.205C56.2095 18.205 57.205 17.8881 57.928 17.2542C58.651 16.6104 59.0126 15.6298 59.0126 14.3125C59.0126 12.9951 58.651 12.0195 57.928 11.3856C57.205 10.7418 56.2095 10.4199 54.9417 10.4199H53.4263V18.205H54.9417Z" fill="white"/>
<path d="M65.6014 19.661C64.8585 19.661 64.1949 19.4976 63.6105 19.1707C63.036 18.834 62.5854 18.3734 62.2585 17.789C61.9416 17.1947 61.7831 16.5311 61.7831 15.7982C61.7831 15.0652 61.9416 14.4066 62.2585 13.8222C62.5854 13.2279 63.036 12.7673 63.6105 12.4405C64.1949 12.1037 64.8585 11.9353 65.6014 11.9353C66.3442 11.9353 67.0029 12.1037 67.5774 12.4405C68.1617 12.7673 68.6124 13.2279 68.9294 13.8222C69.2562 14.4066 69.4197 15.0652 69.4197 15.7982C69.4197 16.5311 69.2562 17.1947 68.9294 17.789C68.6124 18.3734 68.1617 18.834 67.5774 19.1707C67.0029 19.4976 66.3442 19.661 65.6014 19.661ZM65.6014 18.4725C66.3343 18.4725 66.9336 18.2397 67.3991 17.7742C67.8745 17.3087 68.1122 16.65 68.1122 15.7982C68.1122 14.9464 67.8745 14.2877 67.3991 13.8222C66.9336 13.3567 66.3343 13.1239 65.6014 13.1239C64.8684 13.1239 64.2642 13.3567 63.7888 13.8222C63.3233 14.2877 63.0905 14.9464 63.0905 15.7982C63.0905 16.65 63.3233 17.3087 63.7888 17.7742C64.2642 18.2397 64.8684 18.4725 65.6014 18.4725Z" fill="white"/>
<path d="M70.134 12.0839H71.5157L72.9122 16.8827L73.1202 18.205L73.358 16.8827L74.7842 12.0839H76.1065L77.518 16.8827L77.7705 18.205L77.9785 16.8827L79.3751 12.0839H80.7568L78.5282 19.5125H77.0722L75.438 13.5993L73.8185 19.5125H72.3625L70.134 12.0839Z" fill="white"/>
<path d="M82.0611 12.0839H83.3685V13.0496C83.6558 12.7426 84.0322 12.4801 84.4977 12.2622C84.9632 12.0443 85.4535 11.9353 85.9685 11.9353C86.751 11.9353 87.3552 12.1532 87.7811 12.589C88.207 13.0248 88.42 13.6241 88.42 14.3867V19.5125H87.1125V14.6245C87.1125 14.1292 86.9788 13.7528 86.7114 13.4953C86.4539 13.2279 86.0824 13.0942 85.5971 13.0942C85.1712 13.0942 84.7651 13.2229 84.3788 13.4805C84.0024 13.738 83.6657 14.0847 83.3685 14.5205V19.5125H82.0611V12.0839Z" fill="white"/>
<path d="M90.3167 8.66675H91.6241V19.5125H90.3167V8.66675Z" fill="white"/>
<path d="M97.0132 19.661C96.2703 19.661 95.6067 19.4976 95.0223 19.1707C94.4479 18.834 93.9972 18.3734 93.6703 17.789C93.3534 17.1947 93.1949 16.5311 93.1949 15.7982C93.1949 15.0652 93.3534 14.4066 93.6703 13.8222C93.9972 13.2279 94.4479 12.7673 95.0223 12.4405C95.6067 12.1037 96.2703 11.9353 97.0132 11.9353C97.7561 11.9353 98.4147 12.1037 98.9892 12.4405C99.5736 12.7673 100.024 13.2279 100.341 13.8222C100.668 14.4066 100.831 15.0652 100.831 15.7982C100.831 16.5311 100.668 17.1947 100.341 17.789C100.024 18.3734 99.5736 18.834 98.9892 19.1707C98.4147 19.4976 97.7561 19.661 97.0132 19.661ZM97.0132 18.4725C97.7461 18.4725 98.3454 18.2397 98.8109 17.7742C99.2863 17.3087 99.524 16.65 99.524 15.7982C99.524 14.9464 99.2863 14.2877 98.8109 13.8222C98.3454 13.3567 97.7461 13.1239 97.0132 13.1239C96.2802 13.1239 95.676 13.3567 95.2006 13.8222C94.7351 14.2877 94.5023 14.9464 94.5023 15.7982C94.5023 16.65 94.7351 17.3087 95.2006 17.7742C95.676 18.2397 96.2802 18.4725 97.0132 18.4725Z" fill="white"/>
<path d="M104.408 19.661C103.705 19.661 103.136 19.4679 102.7 19.0816C102.264 18.6854 102.046 18.1605 102.046 17.5067C102.046 16.8134 102.284 16.2687 102.759 15.8725C103.235 15.4763 103.834 15.2435 104.557 15.1742L106.875 14.9365V14.4313C106.875 14.0054 106.721 13.6835 106.414 13.4656C106.117 13.2378 105.721 13.1239 105.225 13.1239C104.809 13.1239 104.458 13.2229 104.171 13.421C103.893 13.6191 103.705 13.9212 103.606 14.3273H102.373C102.482 13.5448 102.814 12.9506 103.368 12.5445C103.933 12.1384 104.582 11.9353 105.315 11.9353C106.186 11.9353 106.88 12.1532 107.395 12.589C107.92 13.0149 108.182 13.5795 108.182 14.2827V17.7593C108.182 18.0069 108.237 18.2001 108.345 18.3387C108.454 18.4675 108.618 18.5319 108.836 18.5319C108.965 18.5319 109.093 18.5121 109.222 18.4725V19.453C108.925 19.5521 108.648 19.6016 108.39 19.6016C107.588 19.6016 107.097 19.2153 106.919 18.4427C106.632 18.7696 106.261 19.0568 105.805 19.3045C105.349 19.5422 104.884 19.661 104.408 19.661ZM104.557 18.4725C105.329 18.4725 106.102 18.0862 106.875 17.3136V15.9765L104.646 16.229C104.23 16.2786 103.908 16.4172 103.68 16.645C103.462 16.8629 103.353 17.1304 103.353 17.4473C103.353 17.7841 103.462 18.0416 103.68 18.2199C103.908 18.3883 104.2 18.4725 104.557 18.4725Z" fill="white"/>
<path d="M113.239 19.661C112.625 19.661 112.055 19.5026 111.53 19.1856C111.015 18.8687 110.604 18.418 110.297 17.8336C109.99 17.2492 109.837 16.5707 109.837 15.7982C109.837 15.0256 109.98 14.3471 110.268 13.7627C110.555 13.1784 110.956 12.7277 111.471 12.4107C111.986 12.0938 112.565 11.9353 113.209 11.9353C113.685 11.9353 114.13 12.0195 114.546 12.1879C114.972 12.3464 115.324 12.5742 115.601 12.8713V8.66675H116.909V19.5125H115.601V18.6953C115.344 18.9627 115.017 19.1906 114.621 19.3787C114.224 19.5669 113.764 19.661 113.239 19.661ZM113.447 18.4725C113.833 18.4725 114.19 18.3833 114.517 18.205C114.853 18.0267 115.116 17.789 115.304 17.4919C115.502 17.1947 115.601 16.8728 115.601 16.5262V15.0999C115.601 14.7532 115.502 14.4313 115.304 14.1342C115.106 13.8271 114.844 13.5845 114.517 13.4062C114.19 13.218 113.833 13.1239 113.447 13.1239C112.773 13.1239 112.219 13.3467 111.783 13.7925C111.357 14.2382 111.144 14.9067 111.144 15.7982C111.144 16.6896 111.357 17.3582 111.783 17.8039C112.219 18.2496 112.773 18.4725 113.447 18.4725Z" fill="white"/>
<path d="M125.422 19.661C124.679 19.661 124.015 19.4976 123.431 19.1707C122.856 18.834 122.406 18.3734 122.079 17.789C121.762 17.1947 121.603 16.5311 121.603 15.7982C121.603 15.0652 121.762 14.4066 122.079 13.8222C122.406 13.2279 122.856 12.7673 123.431 12.4405C124.015 12.1037 124.679 11.9353 125.422 11.9353C126.165 11.9353 126.823 12.1037 127.398 12.4405C127.982 12.7673 128.433 13.2279 128.75 13.8222C129.077 14.4066 129.24 15.0652 129.24 15.7982C129.24 16.5311 129.077 17.1947 128.75 17.789C128.433 18.3734 127.982 18.834 127.398 19.1707C126.823 19.4976 126.165 19.661 125.422 19.661ZM125.422 18.4725C126.155 18.4725 126.754 18.2397 127.219 17.7742C127.695 17.3087 127.933 16.65 127.933 15.7982C127.933 14.9464 127.695 14.2877 127.219 13.8222C126.754 13.3567 126.155 13.1239 125.422 13.1239C124.689 13.1239 124.085 13.3567 123.609 13.8222C123.144 14.2877 122.911 14.9464 122.911 15.7982C122.911 16.65 123.144 17.3087 123.609 17.7742C124.085 18.2397 124.689 18.4725 125.422 18.4725Z" fill="white"/>
<path d="M130.811 12.0839H132.119V13.0496C132.406 12.7426 132.782 12.4801 133.248 12.2622C133.713 12.0443 134.203 11.9353 134.719 11.9353C135.501 11.9353 136.105 12.1532 136.531 12.589C136.957 13.0248 137.17 13.6241 137.17 14.3867V19.5125H135.863V14.6245C135.863 14.1292 135.729 13.7528 135.461 13.4953C135.204 13.2279 134.832 13.0942 134.347 13.0942C133.921 13.0942 133.515 13.2229 133.129 13.4805C132.752 13.738 132.416 14.0847 132.119 14.5205V19.5125H130.811V12.0839Z" fill="white"/>
<path d="M52.4756 26.1984H55.2613L60.075 38.3664L64.911 26.1984H67.6967V41.7984H65.0224V32.0149H64.9333L64.8219 32.9955L61.3676 41.7984H58.8047L55.3504 32.9955L55.239 32.0149H55.1499V41.7984H52.4756V26.1984Z" fill="white"/>
<path d="M75.9722 42.0212C74.8282 42.0212 73.8031 41.7686 72.8968 41.2635C72.0054 40.7584 71.3071 40.0675 70.8019 39.1909C70.3116 38.3144 70.0665 37.3264 70.0665 36.2269C70.0665 35.1275 70.3116 34.1395 70.8019 33.2629C71.3071 32.3864 72.0054 31.6955 72.8968 31.1904C73.8031 30.6852 74.8282 30.4326 75.9722 30.4326C77.1162 30.4326 78.1339 30.6852 79.0254 31.1904C79.9168 31.6955 80.6076 32.3864 81.0979 33.2629C81.6031 34.1395 81.8556 35.1275 81.8556 36.2269C81.8556 37.3264 81.6031 38.3144 81.0979 39.1909C80.6076 40.0675 79.9168 40.7584 79.0254 41.2635C78.1339 41.7686 77.1162 42.0212 75.9722 42.0212ZM75.9722 39.7704C76.9528 39.7704 77.7551 39.4584 78.3791 38.8344C79.0031 38.1955 79.3151 37.3264 79.3151 36.2269C79.3151 35.1275 79.0031 34.2658 78.3791 33.6418C77.7551 33.0029 76.9528 32.6835 75.9722 32.6835C74.9916 32.6835 74.1819 33.0029 73.5431 33.6418C72.9191 34.2658 72.6071 35.1275 72.6071 36.2269C72.6071 37.3264 72.9191 38.1955 73.5431 38.8344C74.1819 39.4584 74.9916 39.7704 75.9722 39.7704Z" fill="white"/>
<path d="M90.2455 42.0212C88.8044 42.0212 87.6158 41.5384 86.6798 40.5726V41.7984H84.1392V25.5298H86.6798V31.7698C87.1255 31.3538 87.6455 31.0269 88.2398 30.7892C88.8489 30.5515 89.5175 30.4326 90.2455 30.4326C91.1964 30.4326 92.0581 30.6629 92.8307 31.1235C93.6181 31.5692 94.2421 32.2304 94.7027 33.1069C95.1781 33.9835 95.4158 35.0235 95.4158 36.2269C95.4158 37.4304 95.1707 38.4704 94.6804 39.3469C94.2049 40.2235 93.5661 40.8921 92.7638 41.3526C91.9764 41.7984 91.1369 42.0212 90.2455 42.0212ZM89.6661 39.8372C90.6021 39.8372 91.3672 39.5326 91.9615 38.9235C92.5558 38.2995 92.8529 37.4006 92.8529 36.2269C92.8529 35.0532 92.5558 34.1618 91.9615 33.5526C91.3672 32.9286 90.6021 32.6166 89.6661 32.6166C89.1312 32.6166 88.6335 32.7429 88.1729 32.9955C87.7124 33.2332 87.3484 33.5675 87.0809 33.9984C86.8135 34.4292 86.6798 34.9046 86.6798 35.4246V37.0515C86.6798 37.5715 86.8135 38.0469 87.0809 38.4778C87.3632 38.8938 87.7347 39.2281 88.1952 39.4806C88.6558 39.7184 89.1461 39.8372 89.6661 39.8372Z" fill="white"/>
<path d="M98.9235 29.2069C98.4927 29.2069 98.1213 29.0509 97.8093 28.7389C97.4973 28.4269 97.3413 28.0555 97.3413 27.6246C97.3413 27.1938 97.4973 26.8224 97.8093 26.5104C98.1213 26.1984 98.4927 26.0424 98.9235 26.0424C99.3544 26.0424 99.7258 26.1984 100.038 26.5104C100.35 26.8224 100.506 27.1938 100.506 27.6246C100.506 28.0555 100.35 28.4269 100.038 28.7389C99.7258 29.0509 99.3544 29.2069 98.9235 29.2069ZM97.6533 30.6555H100.194V41.7984H97.6533V30.6555Z" fill="white"/>
<path d="M103.008 25.5298H105.549V41.7984H103.008V25.5298Z" fill="white"/>
<path d="M113.397 42.0212C112.298 42.0212 111.325 41.7835 110.478 41.3081C109.631 40.8178 108.977 40.1344 108.517 39.2578C108.056 38.3812 107.826 37.3709 107.826 36.2269C107.826 35.0978 108.079 34.0949 108.584 33.2184C109.104 32.3418 109.787 31.6584 110.634 31.1681C111.481 30.6778 112.402 30.4326 113.397 30.4326C114.452 30.4326 115.388 30.6629 116.205 31.1235C117.037 31.5692 117.684 32.2229 118.144 33.0846C118.605 33.9464 118.835 34.9641 118.835 36.1378V36.9178H110.3C110.359 37.8241 110.671 38.5446 111.236 39.0795C111.815 39.5995 112.551 39.8595 113.442 39.8595C114.2 39.8595 114.824 39.6886 115.314 39.3469C115.804 38.9904 116.153 38.5075 116.361 37.8984L118.59 38.0321L118.657 38.1435C118.3 39.3915 117.669 40.3498 116.763 41.0184C115.871 41.6869 114.749 42.0212 113.397 42.0212ZM116.428 35.0681C116.354 34.2658 116.035 33.6418 115.47 33.1961C114.92 32.7355 114.229 32.5052 113.397 32.5052C112.625 32.5052 111.956 32.7355 111.392 33.1961C110.842 33.6418 110.493 34.2658 110.344 35.0681H116.428Z" fill="white"/>
</svg>
