<svg width="32" height="41" viewBox="0 0 32 41" fill="none" xmlns="http://www.w3.org/2000/svg">
<path d="M24.1114 10.1463C23.3997 11.5341 21.957 12.4879 20.2927 12.4879C18.6284 12.4879 17.1862 11.5341 16.4739 10.1463H0V24.9758H24.3088C23.509 24.025 23.0242 22.8008 23.0242 21.4637C23.0242 18.8535 24.866 16.6676 27.3169 16.1298V10.1463H24.1114ZM13.6584 22.2442C11.0724 22.2442 8.97523 20.1471 8.97523 17.561C8.97523 14.975 11.0717 12.8778 13.6584 12.8778C16.2451 12.8778 18.3416 14.9744 18.3416 17.561C18.3416 20.1477 16.2445 22.2442 13.6584 22.2442Z" fill="#1F2E51"/>
<path d="M28.4867 24.9734C30.4264 24.9734 31.9988 23.401 31.9988 21.4613C31.9988 19.5216 30.4264 17.9492 28.4867 17.9492C26.547 17.9492 24.9746 19.5216 24.9746 21.4613C24.9746 23.401 26.547 24.9734 28.4867 24.9734Z" fill="#1F2E51"/>
<path d="M20.2928 10.5369C21.586 10.5369 22.6344 9.4885 22.6344 8.19527C22.6344 6.90204 21.586 5.85367 20.2928 5.85367C18.9995 5.85367 17.9512 6.90204 17.9512 8.19527C17.9512 9.4885 18.9995 10.5369 20.2928 10.5369Z" fill="#1F2E51"/>
<path d="M5.11727 0L3.6377 8.1953H16.0001C16.0001 5.82835 17.9258 3.90267 20.2927 3.90267C22.6597 3.90267 24.5853 5.82835 24.5853 8.1953H27.3169H29.2679V10.1463V16.0622C29.5003 16.096 29.7285 16.1431 29.9507 16.2047L32.0001 4.85283L5.11727 0Z" fill="#1F2E51"/>
<path d="M15 29H16V41H15V29Z" fill="#1F2E51"/>
<path d="M8 29H9V38H8V29Z" fill="#1F2E51"/>
<path d="M23 29H24V38H23V29Z" fill="#1F2E51"/>
</svg>
