<svg width="27" height="38" viewBox="0 0 27 38" fill="none" xmlns="http://www.w3.org/2000/svg">
<path d="M11.2639 3.33631C11.6117 3.33631 11.894 3.05402 11.894 2.70623V0.815905C11.894 0.468115 11.6117 0.185822 11.2639 0.185822C10.9161 0.185822 10.6338 0.468115 10.6338 0.815905V2.70623C10.6338 3.05402 10.9161 3.33631 11.2639 3.33631Z" fill="#1F2E51"/>
<path d="M4.37764 7.74704H6.25534C6.60379 7.74704 6.88542 7.46475 6.88542 7.11696C6.88542 6.76917 6.60379 6.48688 6.25534 6.48688H4.37764C4.02985 6.48688 3.74756 6.76917 3.74756 7.11696C3.74756 7.46475 4.02985 7.74704 4.37764 7.74704Z" fill="#1F2E51"/>
<path d="M15.0156 7.11696C15.0156 7.46475 15.2979 7.74704 15.6457 7.74704H17.5234C17.8719 7.74704 18.1535 7.46475 18.1535 7.11696C18.1535 6.76917 17.8719 6.48688 17.5234 6.48688H15.6457C15.2979 6.4868 15.0156 6.7691 15.0156 7.11696Z" fill="#1F2E51"/>
<path d="M14.3939 4.59647C14.5559 4.59647 14.7178 4.53408 14.8407 4.41061L16.0927 3.15037C16.3378 2.90338 16.3365 2.50449 16.0895 2.25941C15.8438 2.01433 15.4443 2.01559 15.1986 2.26192L13.9472 3.52216C13.7015 3.76916 13.7027 4.16805 13.9497 4.41312C14.0726 4.5354 14.2333 4.59647 14.3939 4.59647Z" fill="#1F2E51"/>
<path d="M7.06096 4.4104C7.18383 4.53453 7.34643 4.59626 7.5077 4.59626C7.66838 4.59626 7.82905 4.53578 7.95193 4.4135C8.19892 4.16843 8.20018 3.76887 7.9551 3.52254L6.70306 2.2623C6.45732 2.01464 6.05843 2.01338 5.8121 2.25913C5.5651 2.5042 5.56384 2.90309 5.80892 3.15009L7.06096 4.4104Z" fill="#1F2E51"/>
<path d="M24.1644 17.1986C23.5821 17.1986 23.0396 17.375 22.5891 17.6775V17.5136C22.5891 15.9504 21.3169 14.6782 19.7537 14.6782C19.1714 14.6782 18.6289 14.8546 18.1784 15.157V14.9932C18.1784 13.4299 16.9062 12.1577 15.3429 12.1577C14.7626 12.1577 14.2219 12.3328 13.7714 12.634V7.4956C13.7714 5.89702 12.5062 4.59647 10.9498 4.59647C9.39409 4.59647 8.12824 5.89702 8.12824 7.4956L8.12949 19.9491C6.78988 18.009 4.14283 17.0455 2.11952 17.8351C1.80444 17.9579 1.53352 18.1325 1.35712 18.2535C0.505807 18.8375 0.529141 19.5515 0.544943 19.801C0.488233 20.1306 0.566357 20.2244 1.31554 21.1198C2.28027 22.2742 4.28778 24.6755 5.56434 27.051C5.60466 27.1152 6.21023 28.0673 7.06397 29.2229C7.16041 29.2608 7.25049 29.313 7.32109 29.3981C7.58071 29.7106 9.02238 30.7049 9.88373 31.2985C10.5491 31.7572 11.074 32.1196 11.3179 32.3225C11.585 32.5456 11.621 32.9431 11.3985 33.2103C11.2737 33.3596 11.0948 33.4371 10.914 33.4371C10.7715 33.4371 10.6292 33.3886 10.5113 33.2909C10.3109 33.124 9.75584 32.7415 9.16851 32.3363C9.01795 32.2323 8.87359 32.1321 8.73181 32.0338L8.72679 32.9588C8.72679 35.9222 11.0569 37.9921 14.394 37.9921H20.0278C22.6409 37.9921 24.729 36.4604 25.223 34.1799C25.276 33.9361 25.3314 33.7351 25.3862 33.5643C24.499 33.8819 23.6774 34.1106 23.3831 34.1901C23.3283 34.2045 23.2728 34.2115 23.2192 34.2115C22.9407 34.2115 22.6862 34.0262 22.6105 33.7452C22.5205 33.4087 22.7195 33.0634 23.0554 32.9727C24.2854 32.6425 25.5437 32.1875 26.3351 31.812C26.7025 30.9904 26.9999 29.8347 26.9999 28.4157V20.0341C26.9999 18.4708 25.7277 17.1986 24.1644 17.1986Z" fill="#1F2E51"/>
</svg>
