<svg width="141" height="118" viewBox="0 0 141 118" fill="none" xmlns="http://www.w3.org/2000/svg">
<path d="M57.7928 27.5431H57.156V10.0972C57.156 8.77124 56.8948 7.45824 56.3874 6.23318C55.88 5.00813 55.1362 3.89502 54.1986 2.9574C53.261 2.01979 52.1479 1.27603 50.9228 0.768598C49.6978 0.261166 48.3847 -4.14839e-06 47.0588 0H10.0973C8.77126 -4.14839e-06 7.45825 0.261166 6.2332 0.768598C5.00814 1.27603 3.89503 2.01979 2.95741 2.9574C2.0198 3.89502 1.27604 5.00813 0.768602 6.23318C0.261169 7.45824 -2.07421e-06 8.77125 0 10.0972V105.807C-1.24452e-06 107.133 0.261171 108.446 0.768605 109.671C1.27604 110.896 2.0198 112.009 2.95742 112.947C3.89503 113.884 5.00814 114.628 6.2332 115.135C7.45825 115.643 8.77126 115.904 10.0973 115.904H47.0588C48.3847 115.904 49.6977 115.643 50.9228 115.135C52.1479 114.628 53.261 113.884 54.1986 112.947C55.1362 112.009 55.88 110.896 56.3874 109.671C56.8948 108.446 57.156 107.133 57.156 105.807V39.9614H57.7928V27.5431Z" fill="#E6E6E6"/>
<path d="M47.4662 2.62695H42.6415C42.8633 3.17092 42.948 3.7611 42.8881 4.34551C42.8281 4.92992 42.6254 5.49062 42.2977 5.97822C41.97 6.46582 41.5274 6.86534 41.009 7.1416C40.4905 7.41787 39.9121 7.56239 39.3246 7.56243H18.1498C17.5623 7.56239 16.9839 7.41787 16.4654 7.1416C15.9469 6.86534 15.5044 6.46582 15.1767 5.97822C14.849 5.49063 14.6462 4.92992 14.5863 4.34551C14.5263 3.7611 14.611 3.17092 14.8329 2.62695H10.3266C9.33641 2.62695 8.35587 2.82199 7.44101 3.20093C6.52616 3.57988 5.6949 4.13531 4.9947 4.83551C4.2945 5.5357 3.73907 6.36696 3.36012 7.28181C2.98118 8.19667 2.78613 9.1772 2.78613 10.1674V105.737C2.78613 106.727 2.98118 107.707 3.36012 108.622C3.73907 109.537 4.2945 110.368 4.9947 111.069C5.6949 111.769 6.52616 112.324 7.44101 112.703C8.35587 113.082 9.3364 113.277 10.3266 113.277H47.4662C48.4564 113.277 49.4369 113.082 50.3518 112.703C51.2667 112.324 52.0979 111.769 52.7981 111.069C53.4983 110.368 54.0537 109.537 54.4327 108.622C54.8116 107.707 55.0067 106.727 55.0067 105.737V10.1674C55.0067 9.1772 54.8116 8.19667 54.4327 7.28181C54.0537 6.36696 53.4983 5.5357 52.7981 4.83551C52.0979 4.13531 51.2666 3.57988 50.3518 3.20093C49.4369 2.82199 48.4564 2.62695 47.4662 2.62695Z" fill="white"/>
<path d="M17.9544 22.0551H15.7369C15.6589 22.0551 15.5841 22.0861 15.529 22.1412C15.4738 22.1964 15.4429 22.2711 15.4429 22.3491V23.3224C15.4429 23.4004 15.4738 23.4752 15.529 23.5303C15.5841 23.5854 15.6589 23.6164 15.7369 23.6164H16.1043V25.0748H17.5869V23.6164H17.9544C18.0323 23.6164 18.1071 23.5854 18.1622 23.5303C18.2174 23.4752 18.2483 23.4004 18.2483 23.3224V22.3491C18.2483 22.2711 18.2174 22.1964 18.1622 22.1412C18.1071 22.0861 18.0323 22.0551 17.9544 22.0551Z" fill="#E6E6E6"/>
<path d="M20.1752 30.963C18.8171 28.9758 18.1229 26.6097 18.1919 24.2038C18.1931 24.1483 18.1751 24.094 18.1409 24.0503C18.1067 24.0066 18.0584 23.976 18.0042 23.9638V23.5433H15.6622V23.958H15.63C15.5662 23.9581 15.5051 23.9835 15.4601 24.0286C15.4151 24.0737 15.3899 24.1349 15.39 24.1986C15.39 24.2045 15.3902 24.2103 15.3906 24.2161C15.5751 26.788 14.9521 29.0945 13.5216 31.1355C13.4392 31.2528 13.3972 31.3936 13.4017 31.5368L13.6578 39.4582C13.6639 39.6348 13.7381 39.8023 13.8648 39.9256C13.9914 40.0489 14.1609 40.1186 14.3376 40.12H19.6348C19.8136 40.1185 19.9848 40.0473 20.1118 39.9215C20.2389 39.7957 20.3118 39.6253 20.3151 39.4465L20.4138 31.7555C20.4167 31.4732 20.3335 31.1967 20.1752 30.963Z" fill="#E6E6E6"/>
<path d="M19.3366 33.5942H14.7258C14.6576 33.5942 14.5901 33.609 14.5281 33.6375C14.4661 33.666 14.411 33.7076 14.3665 33.7594C14.3221 33.8112 14.2894 33.872 14.2706 33.9376C14.2519 34.0032 14.2476 34.0721 14.2579 34.1396L14.9547 38.6685H18.9555L19.8019 34.1549C19.8147 34.0865 19.8123 34.0161 19.7948 33.9488C19.7774 33.8815 19.7453 33.8188 19.7009 33.7653C19.6564 33.7118 19.6008 33.6687 19.5378 33.6391C19.4748 33.6096 19.4061 33.5942 19.3366 33.5942Z" fill="white"/>
<path d="M42.6394 45.7844H40.4219C40.344 45.7844 40.2692 45.8154 40.214 45.8705C40.1589 45.9257 40.1279 46.0004 40.1279 46.0784V47.0517C40.1279 47.1297 40.1589 47.2045 40.214 47.2596C40.2692 47.3148 40.344 47.3457 40.4219 47.3457H40.7894V48.8041H42.2719V47.3457H42.6394C42.7174 47.3457 42.7922 47.3148 42.8473 47.2596C42.9024 47.2045 42.9334 47.1297 42.9334 47.0517V46.0784C42.9334 46.0004 42.9024 45.9257 42.8473 45.8705C42.7922 45.8154 42.7174 45.7844 42.6394 45.7844Z" fill="#E6E6E6"/>
<path d="M44.8603 54.6923C43.5022 52.7051 42.8079 50.3391 42.8769 47.9332C42.8782 47.8776 42.8601 47.8234 42.8259 47.7797C42.7917 47.7359 42.7434 47.7054 42.6892 47.6932V47.2726H40.3473V47.6874H40.315C40.2835 47.6874 40.2522 47.6937 40.2231 47.7058C40.1939 47.7179 40.1675 47.7356 40.1452 47.758C40.1229 47.7803 40.1052 47.8068 40.0932 47.836C40.0812 47.8652 40.075 47.8964 40.075 47.928C40.075 47.9338 40.0752 47.9397 40.0757 47.9455C40.2602 50.5174 39.6372 52.8239 38.2066 54.8648C38.1243 54.9821 38.0822 55.123 38.0868 55.2662L38.3428 63.1875C38.349 63.3642 38.4231 63.5317 38.5498 63.655C38.6765 63.7783 38.8459 63.848 39.0227 63.8494H44.3199C44.4987 63.8479 44.6698 63.7767 44.7969 63.6509C44.924 63.5251 44.9969 63.3546 45.0001 63.1758L45.0988 55.4849C45.1017 55.2026 45.0185 54.9261 44.8603 54.6923Z" fill="#E6E6E6"/>
<path d="M44.0216 57.3235H39.4109C39.3426 57.3235 39.2752 57.3383 39.2132 57.3668C39.1512 57.3953 39.096 57.4369 39.0516 57.4887C39.0072 57.5405 38.9744 57.6013 38.9557 57.6669C38.937 57.7325 38.9326 57.8014 38.943 57.8689L39.6398 62.3978H43.6406L44.4869 57.8842C44.4997 57.8158 44.4973 57.7455 44.4799 57.6781C44.4624 57.6108 44.4303 57.5481 44.3859 57.4946C44.3415 57.4411 44.2858 57.398 44.2229 57.3684C44.1599 57.3389 44.0912 57.3235 44.0216 57.3235H44.0216Z" fill="white"/>
<path d="M14.8368 79.3309H13.785C13.748 79.3309 13.7125 79.3456 13.6864 79.3717C13.6602 79.3979 13.6455 79.4333 13.6455 79.4703V79.932C13.6455 79.969 13.6602 80.0045 13.6864 80.0306C13.7125 80.0568 13.748 80.0715 13.785 80.0715H13.9593V80.7632H14.6625V80.0715H14.8368C14.8738 80.0715 14.9093 80.0568 14.9354 80.0306C14.9616 80.0045 14.9763 79.969 14.9763 79.932V79.4703C14.9763 79.4333 14.9616 79.3979 14.9354 79.3717C14.9093 79.3456 14.8738 79.3309 14.8368 79.3309Z" fill="#E6E6E6"/>
<path d="M15.8909 83.5562C15.2467 82.6136 14.9174 81.4913 14.9501 80.35C14.9507 80.3237 14.9421 80.298 14.9259 80.2772C14.9097 80.2565 14.8868 80.242 14.8611 80.2362V80.0367H13.7502V80.2335H13.7349C13.7199 80.2335 13.7051 80.2365 13.6912 80.2422C13.6774 80.2479 13.6649 80.2564 13.6543 80.267C13.6437 80.2776 13.6353 80.2901 13.6296 80.304C13.6239 80.3178 13.621 80.3326 13.621 80.3476C13.621 80.3504 13.6211 80.3531 13.6213 80.3559C13.7239 81.5204 13.4097 82.6835 12.7347 83.6381C12.6957 83.6937 12.6757 83.7605 12.6779 83.8284L12.7994 87.5859C12.8023 87.6697 12.8374 87.7491 12.8975 87.8076C12.9576 87.8661 13.038 87.8992 13.1218 87.8998H15.6345C15.7193 87.8991 15.8005 87.8654 15.8608 87.8057C15.9211 87.746 15.9557 87.6652 15.9572 87.5804L16.004 83.9322C16.0054 83.7983 15.9659 83.6671 15.8909 83.5562Z" fill="#E6E6E6"/>
<path d="M15.5289 84.9375H13.1313V86.1363H15.5289V84.9375Z" fill="white"/>
<path d="M19.7328 79.3309H18.681C18.644 79.3309 18.6085 79.3456 18.5824 79.3717C18.5562 79.3979 18.5415 79.4333 18.5415 79.4703V79.932C18.5415 79.969 18.5562 80.0045 18.5824 80.0306C18.6085 80.0568 18.644 80.0715 18.681 80.0715H18.8553V80.7632H19.5585V80.0715H19.7328C19.7698 80.0715 19.8053 80.0568 19.8314 80.0306C19.8576 80.0045 19.8723 79.969 19.8723 79.932V79.4703C19.8723 79.4333 19.8576 79.3979 19.8314 79.3717C19.8053 79.3456 19.7698 79.3309 19.7328 79.3309Z" fill="#E6E6E6"/>
<path d="M20.7869 83.5562C20.1427 82.6136 19.8134 81.4913 19.8461 80.35C19.8467 80.3237 19.8381 80.298 19.8219 80.2772C19.8057 80.2565 19.7828 80.242 19.7571 80.2362V80.0367H18.6462V80.2335H18.6308C18.6159 80.2335 18.6011 80.2365 18.5872 80.2422C18.5734 80.2479 18.5609 80.2564 18.5503 80.267C18.5397 80.2776 18.5313 80.2901 18.5256 80.304C18.5199 80.3178 18.517 80.3326 18.517 80.3476C18.517 80.3504 18.5171 80.3531 18.5173 80.3559C18.6199 81.5204 18.3057 82.6835 17.6307 83.6381C17.5917 83.6937 17.5717 83.7605 17.5739 83.8284L17.6954 87.5859C17.6983 87.6697 17.7334 87.7491 17.7935 87.8076C17.8536 87.8661 17.934 87.8992 18.0178 87.8998H20.5305C20.6153 87.8991 20.6965 87.8654 20.7568 87.8057C20.8171 87.746 20.8517 87.6652 20.8532 87.5804L20.9 83.9322C20.9014 83.7983 20.8619 83.6671 20.7869 83.5562Z" fill="#E6E6E6"/>
<path d="M20.4253 84.9375H18.0278V86.1363H20.4253V84.9375Z" fill="white"/>
<path d="M24.6298 79.3309H23.5779C23.5409 79.3309 23.5055 79.3456 23.4793 79.3717C23.4532 79.3979 23.4385 79.4333 23.4385 79.4703V79.932C23.4385 79.969 23.4532 80.0045 23.4793 80.0306C23.5055 80.0568 23.5409 80.0715 23.5779 80.0715H23.7522V80.7632H24.4555V80.0715H24.6298C24.6668 80.0715 24.7022 80.0568 24.7284 80.0306C24.7546 80.0045 24.7692 79.969 24.7692 79.932V79.4703C24.7692 79.4333 24.7546 79.3979 24.7284 79.3717C24.7022 79.3456 24.6668 79.3309 24.6298 79.3309Z" fill="#E6E6E6"/>
<path d="M25.6834 83.5562C25.0392 82.6136 24.7098 81.4913 24.7426 80.35C24.7432 80.3237 24.7346 80.298 24.7184 80.2772C24.7021 80.2565 24.6792 80.242 24.6535 80.2362V80.0367H23.5426V80.2335H23.5273C23.5124 80.2335 23.4975 80.2365 23.4837 80.2422C23.4699 80.2479 23.4573 80.2564 23.4468 80.267C23.4362 80.2776 23.4278 80.2901 23.4221 80.304C23.4164 80.3178 23.4135 80.3326 23.4135 80.3476C23.4135 80.3504 23.4136 80.3531 23.4138 80.3559C23.5163 81.5204 23.2022 82.6835 22.5272 83.6381C22.4882 83.6937 22.4682 83.7605 22.4704 83.8284L22.5918 87.5859C22.5948 87.6697 22.6299 87.7491 22.69 87.8076C22.7501 87.8661 22.8305 87.8992 22.9143 87.8998H25.427C25.5118 87.8991 25.593 87.8654 25.6533 87.8057C25.7136 87.746 25.7482 87.6652 25.7497 87.5804L25.7965 83.9322C25.7979 83.7983 25.7584 83.6671 25.6834 83.5562Z" fill="#E6E6E6"/>
<path d="M25.3218 84.9375H22.9243V86.1363H25.3218V84.9375Z" fill="white"/>
<path d="M38.7874 70.1509H36.5699C36.5313 70.1509 36.493 70.1585 36.4574 70.1733C36.4217 70.188 36.3893 70.2097 36.362 70.237C36.3347 70.2643 36.313 70.2967 36.2983 70.3324C36.2835 70.368 36.2759 70.4063 36.2759 70.4449V71.4182C36.2759 71.4962 36.3069 71.571 36.362 71.6261C36.4171 71.6812 36.4919 71.7122 36.5699 71.7122H36.9373V73.1706H38.4199V71.7122H38.7874C38.8653 71.7122 38.9401 71.6812 38.9952 71.6261C39.0504 71.571 39.0814 71.4962 39.0814 71.4182V70.4449C39.0814 70.4063 39.0737 70.368 39.059 70.3324C39.0442 70.2967 39.0225 70.2643 38.9952 70.237C38.9679 70.2097 38.9355 70.188 38.8999 70.1733C38.8642 70.1585 38.826 70.1509 38.7874 70.1509Z" fill="#E6E6E6"/>
<path d="M41.0082 79.0587C39.6501 77.0715 38.9559 74.7055 39.0249 72.2995C39.0261 72.244 39.0081 72.1898 38.9739 72.1461C38.9397 72.1023 38.8914 72.0718 38.8372 72.0596V71.639H36.4952V72.0538H36.463C36.4314 72.0538 36.4002 72.0601 36.371 72.0722C36.3419 72.0843 36.3154 72.102 36.2931 72.1244C36.2708 72.1467 36.2532 72.1732 36.2411 72.2024C36.2291 72.2316 36.2229 72.2628 36.223 72.2944C36.223 72.3002 36.2232 72.306 36.2236 72.3119C36.4081 74.8838 35.7851 77.1902 34.3546 79.2312C34.2722 79.3485 34.2302 79.4893 34.2347 79.6326L34.4908 87.5539C34.4969 87.7306 34.5711 87.8981 34.6978 88.0214C34.8245 88.1447 34.9939 88.2143 35.1707 88.2157H40.4678C40.6466 88.2143 40.8178 88.1431 40.9449 88.0173C41.0719 87.8915 41.1448 87.721 41.1481 87.5422L41.2468 79.8513C41.2497 79.569 41.1665 79.2925 41.0082 79.0587Z" fill="#E6E6E6"/>
<path d="M40.1696 81.6899H35.5588C35.4906 81.6899 35.4231 81.7046 35.3611 81.7331C35.2991 81.7616 35.244 81.8032 35.1995 81.855C35.1551 81.9068 35.1224 81.9676 35.1037 82.0333C35.0849 82.0989 35.0806 82.1678 35.091 82.2352L35.7877 86.7641H39.7886L40.6349 82.2505C40.6477 82.1821 40.6453 82.1118 40.6278 82.0445C40.6104 81.9771 40.5783 81.9145 40.5339 81.8609C40.4894 81.8074 40.4338 81.7643 40.3708 81.7348C40.3079 81.7052 40.2392 81.6899 40.1696 81.6899Z" fill="white"/>
<path d="M39.9977 41.1397H26.7793C27.7034 36.1433 27.4908 30.1099 26.7793 23.6214H39.9977C39.3051 30.1099 39.0981 36.1433 39.9977 41.1397Z" fill="#E6E6E6"/>
<path d="M33.4684 35.0879C35.2275 35.0879 36.6535 33.6619 36.6535 31.9028C36.6535 30.1437 35.2275 28.7177 33.4684 28.7177C31.7092 28.7177 30.2832 30.1437 30.2832 31.9028C30.2832 33.6619 31.7092 35.0879 33.4684 35.0879Z" fill="white"/>
<path d="M27.8937 64.3913H14.6753C15.5994 59.3949 15.3868 53.3615 14.6753 46.873H27.8937C27.2011 53.3615 26.9941 59.3949 27.8937 64.3913Z" fill="#E6E6E6"/>
<path d="M21.3643 58.3395C23.1235 58.3395 24.5495 56.9135 24.5495 55.1544C24.5495 53.3953 23.1235 51.9692 21.3643 51.9692C19.6052 51.9692 18.1792 53.3953 18.1792 55.1544C18.1792 56.9135 19.6052 58.3395 21.3643 58.3395Z" fill="white"/>
<path d="M47.4825 42.2545H34.2642C35.1883 37.2581 34.9757 31.2247 34.2642 24.7362H47.4825C46.7899 31.2247 46.583 37.2581 47.4825 42.2545Z" fill="#E6E6E6"/>
<path d="M40.9527 36.2028C42.7118 36.2028 44.1379 34.7767 44.1379 33.0176C44.1379 31.2585 42.7118 29.8325 40.9527 29.8325C39.1936 29.8325 37.7676 31.2585 37.7676 33.0176C37.7676 34.7767 39.1936 36.2028 40.9527 36.2028Z" fill="white"/>
<path d="M47.4825 41.4583H34.2642C35.1883 36.4618 34.9757 30.4284 34.2642 23.9399H47.4825C46.7899 30.4284 46.583 36.4618 47.4825 41.4583Z" fill="#E6E6E6"/>
<path d="M40.9527 35.4065C42.7118 35.4065 44.1379 33.9805 44.1379 32.2213C44.1379 30.4622 42.7118 29.0362 40.9527 29.0362C39.1936 29.0362 37.7676 30.4622 37.7676 32.2213C37.7676 33.9805 39.1936 35.4065 40.9527 35.4065Z" fill="white"/>
<path d="M47.4825 42.2545H34.2642C35.1883 37.2581 34.9757 31.2247 34.2642 24.7362H47.4825C46.7899 31.2247 46.583 37.2581 47.4825 42.2545Z" fill="#E6E6E6"/>
<path d="M40.9527 36.2028C42.7118 36.2028 44.1379 34.7767 44.1379 33.0176C44.1379 31.2585 42.7118 29.8325 40.9527 29.8325C39.1936 29.8325 37.7676 31.2585 37.7676 33.0176C37.7676 34.7767 39.1936 36.2028 40.9527 36.2028Z" fill="white"/>
<path d="M50.5085 40.1842H7.19043V44.9619H50.5085V40.1842Z" fill="#E6E6E6"/>
<path d="M50.5085 63.9135H7.19043V68.6912H50.5085V63.9135Z" fill="#E6E6E6"/>
<path d="M50.5085 87.6429H7.19043V92.4207H50.5085V87.6429Z" fill="#E6E6E6"/>
<path d="M125.862 107.026L115.07 99.3929C118.71 95.8473 122.02 90.7988 125.186 85.0905L135.978 92.7235C131.666 97.6209 128.013 102.427 125.862 107.026Z" fill="#5ACAEF"/>
<path d="M125.865 98.8992C127.624 98.8992 129.05 97.4732 129.05 95.7141C129.05 93.955 127.624 92.5289 125.865 92.5289C124.106 92.5289 122.68 93.955 122.68 95.7141C122.68 97.4732 124.106 98.8992 125.865 98.8992Z" fill="white"/>
<path d="M73.8036 72.1949H72.619C72.5773 72.1949 72.5374 72.2115 72.5079 72.2409C72.4785 72.2704 72.4619 72.3103 72.4619 72.352V72.872C72.4619 72.8926 72.466 72.913 72.4739 72.9321C72.4818 72.9511 72.4933 72.9684 72.5079 72.983C72.5225 72.9976 72.5398 73.0092 72.5589 73.0171C72.5779 73.025 72.5983 73.029 72.619 73.029H72.8153V73.8081H73.6073V73.029H73.8036C73.8452 73.029 73.8852 73.0125 73.9146 72.983C73.9441 72.9536 73.9606 72.9136 73.9606 72.872V72.352C73.9606 72.3103 73.9441 72.2704 73.9146 72.241C73.8852 72.2115 73.8452 72.1949 73.8036 72.1949Z" fill="#E6E6E6"/>
<path d="M74.9903 76.9536C74.2648 75.892 73.8939 74.6281 73.9307 73.3428C73.9314 73.3131 73.9218 73.2842 73.9035 73.2608C73.8852 73.2374 73.8594 73.2211 73.8305 73.2146V72.9899H72.5794V73.2115H72.5621C72.5453 73.2115 72.5286 73.2148 72.513 73.2213C72.4974 73.2278 72.4833 73.2373 72.4714 73.2492C72.4595 73.2611 72.4501 73.2753 72.4436 73.2909C72.4372 73.3065 72.4339 73.3232 72.4339 73.34C72.4339 73.3431 72.434 73.3463 72.4343 73.3494C72.5497 74.6609 72.1959 75.9708 71.4358 77.0458C71.3918 77.1084 71.3693 77.1837 71.3718 77.2602L71.5086 81.4919C71.5118 81.5863 71.5515 81.6757 71.6191 81.7416C71.6868 81.8075 71.7773 81.8447 71.8717 81.8454H74.7016C74.7971 81.8447 74.8885 81.8066 74.9564 81.7394C75.0243 81.6722 75.0633 81.5812 75.065 81.4856L75.1177 77.377C75.1193 77.2262 75.0748 77.0785 74.9903 76.9536Z" fill="#5ACAEF"/>
<path opacity="0.2" d="M73.5566 72.3644C73.5566 72.4542 73.5209 72.5404 73.4573 72.604C73.3938 72.6675 73.3076 72.7032 73.2177 72.7032C73.1279 72.7032 73.0417 72.6675 72.9782 72.604C72.9146 72.5404 72.8789 72.4542 72.8789 72.3644" fill="black"/>
<path d="M74.4387 77.769H72.0498V79.3616H74.4387V77.769Z" fill="white"/>
<path d="M111.291 88.7264H109.073C108.995 88.7264 108.921 88.7574 108.865 88.8125C108.81 88.8677 108.779 88.9425 108.779 89.0204V89.9938C108.779 90.0717 108.81 90.1465 108.865 90.2016C108.921 90.2568 108.995 90.2878 109.073 90.2878H109.441V91.7461H110.923V90.2878H111.291C111.369 90.2878 111.444 90.2568 111.499 90.2016C111.554 90.1465 111.585 90.0717 111.585 89.9938V89.0204C111.585 88.9425 111.554 88.8677 111.499 88.8125C111.444 88.7574 111.369 88.7264 111.291 88.7264Z" fill="#E6E6E6"/>
<path d="M113.512 97.6343C112.154 95.6471 111.46 93.281 111.529 90.8751C111.53 90.8196 111.512 90.7654 111.478 90.7216C111.444 90.6779 111.395 90.6473 111.341 90.6352V90.2146H108.999V90.6293H108.967C108.935 90.6294 108.904 90.6356 108.875 90.6477C108.846 90.6598 108.819 90.6776 108.797 90.6999C108.775 90.7223 108.757 90.7488 108.745 90.778C108.733 90.8071 108.727 90.8384 108.727 90.8699C108.727 90.8758 108.727 90.8816 108.728 90.8874C108.912 93.4593 108.289 95.7658 106.858 97.8068C106.776 97.9241 106.734 98.0649 106.739 98.2081L106.995 106.129C107.001 106.306 107.075 106.474 107.202 106.597C107.328 106.72 107.498 106.79 107.675 106.791H112.972C113.151 106.79 113.322 106.719 113.449 106.593C113.576 106.467 113.649 106.297 113.652 106.118L113.751 98.4268C113.754 98.1445 113.67 97.8681 113.512 97.6343Z" fill="#5ACAEF"/>
<path opacity="0.2" d="M110.829 89.0436C110.829 89.2118 110.762 89.3731 110.643 89.4921C110.524 89.611 110.363 89.6779 110.194 89.6779C110.026 89.6779 109.865 89.611 109.746 89.4921C109.627 89.3731 109.56 89.2118 109.56 89.0436" fill="black"/>
<path d="M112.674 100.266H108.063C107.994 100.266 107.927 100.28 107.865 100.309C107.803 100.337 107.748 100.379 107.703 100.431C107.659 100.482 107.626 100.543 107.608 100.609C107.589 100.675 107.584 100.743 107.595 100.811L108.292 105.34H112.292L113.139 100.826C113.152 100.758 113.149 100.687 113.132 100.62C113.114 100.553 113.082 100.49 113.038 100.437C112.993 100.383 112.938 100.34 112.875 100.31C112.812 100.281 112.743 100.266 112.674 100.266Z" fill="white"/>
<path d="M104.964 107.013H91.7456C92.6698 102.017 92.4571 95.9836 91.7456 89.4951H104.964C104.271 95.9836 104.064 102.017 104.964 107.013Z" fill="#5ACAEF"/>
<path d="M98.4347 100.962C100.194 100.962 101.62 99.5356 101.62 97.7765C101.62 96.0173 100.194 94.5913 98.4347 94.5913C96.6756 94.5913 95.2495 96.0173 95.2495 97.7765C95.2495 99.5356 96.6756 100.962 98.4347 100.962Z" fill="white"/>
<path d="M50.8979 51.8808L53.8653 51.611L55.7538 47.0252L52.3817 45.1367L50.8979 51.8808Z" fill="#FFB8B8"/>
<path d="M78.1312 64.4706C78.2299 64.2245 78.2687 63.9585 78.2444 63.6945C78.22 63.4305 78.1333 63.176 77.9914 62.9521C77.8495 62.7282 77.6563 62.5412 77.428 62.4066C77.1996 62.2719 76.9425 62.1935 76.6778 62.1777L72.0705 61.903L71.3921 64.1588L76.1351 65.4614C76.5314 65.5702 76.954 65.5294 77.3221 65.3466C77.6903 65.1639 77.9783 64.8521 78.1312 64.4706Z" fill="#FFB8B8"/>
<path d="M73.1841 65.4992L73.1334 61.2663L62.8995 59.6333L55.0154 50.5911C54.6052 50.1207 54.0384 49.8148 53.42 49.7303C52.8015 49.6457 52.1734 49.7882 51.652 50.1312C51.3363 50.3389 51.07 50.6134 50.8721 50.9354C50.6741 51.2573 50.5493 51.6188 50.5064 51.9943C50.4635 52.3697 50.5036 52.75 50.6239 53.1083C50.7442 53.4666 50.9417 53.7941 51.2024 54.0676L57.7067 62.0721L73.1841 65.4992Z" fill="#575A89"/>
<path d="M48.605 113.118H51.3026L57.9939 82.8652L64.9258 92.2108L68.9723 112.443H71.5351L70.9955 90.7271L61.9584 67.5273H53.0561C50.6234 71.93 48.715 76.4685 50.898 81.1505L48.605 113.118Z" fill="#2F2E41"/>
<path d="M67.3187 114.955C67.2888 115.051 67.2797 115.151 67.2918 115.251C67.304 115.35 67.3371 115.445 67.389 115.531C67.441 115.616 67.5105 115.69 67.593 115.746C67.6756 115.803 67.7692 115.841 67.8676 115.858L74.4688 117.03C74.7297 117.078 74.999 117.028 75.2259 116.891C75.4529 116.754 75.6219 116.538 75.7009 116.285C75.7779 116.044 75.7671 115.782 75.6706 115.548C75.5741 115.313 75.3979 115.12 75.173 115.002C73.7216 114.257 72.4724 113.171 71.5326 111.837C70.8071 112.513 69.9962 112.449 69.1351 111.951L68.2218 112.065L67.3187 114.955Z" fill="#2F2E41"/>
<path d="M47.3553 114.955C47.3255 115.051 47.3163 115.151 47.3284 115.251C47.3406 115.35 47.3737 115.445 47.4257 115.531C47.4776 115.616 47.5471 115.69 47.6297 115.746C47.7122 115.803 47.8058 115.841 47.9043 115.858L54.5054 117.03C54.7663 117.078 55.0356 117.028 55.2626 116.891C55.4895 116.754 55.6585 116.538 55.7376 116.285C55.8145 116.044 55.8038 115.782 55.7072 115.548C55.6107 115.313 55.4345 115.12 55.2097 115.002C53.7582 114.257 52.5091 113.171 51.5692 111.837C50.8437 112.513 50.0328 112.449 49.1717 111.951L48.2584 112.065L47.3553 114.955Z" fill="#2F2E41"/>
<path d="M55.8207 48.7111C57.9065 48.7111 59.5974 47.0202 59.5974 44.9344C59.5974 42.8485 57.9065 41.1577 55.8207 41.1577C53.7348 41.1577 52.0439 42.8485 52.0439 44.9344C52.0439 47.0202 53.7348 48.7111 55.8207 48.7111Z" fill="#FFB8B8"/>
<path d="M52.4492 68.5389L62.2957 68.2691L59.404 59.1682C61.201 56.2873 59.3924 53.4094 56.8329 50.532L54.8097 49.1832L51.5725 48.9135C50.1709 50.4132 49.404 52.3971 49.4324 54.4496C49.4965 58.8448 50.2747 63.6294 52.4492 68.5389Z" fill="#575A89"/>
<path d="M75.0717 74.6649C75.2592 74.4775 75.3995 74.2482 75.481 73.9959C75.5625 73.7436 75.5829 73.4756 75.5405 73.2139C75.498 72.9521 75.3941 72.7043 75.237 72.4906C75.08 72.277 74.8745 72.1037 74.6374 71.9851L70.5096 69.92L68.9985 71.7271L72.8467 74.7906C73.1683 75.0465 73.5728 75.1752 73.9831 75.152C74.3935 75.1289 74.781 74.9554 75.0717 74.6649Z" fill="#FFB8B8"/>
<path d="M70.1188 73.6644L71.7374 69.7528L62.9709 64.2256L59.2796 52.811C59.0876 52.2171 58.6868 51.7129 58.1515 51.3919C57.6162 51.0709 56.9827 50.9547 56.3683 51.065C55.9964 51.1318 55.6436 51.2794 55.335 51.4975C55.0263 51.7156 54.7694 51.9988 54.5822 52.3272C54.3951 52.6555 54.2824 53.0209 54.252 53.3976C54.2216 53.7743 54.2744 54.1531 54.4065 54.5072L57.2375 64.425L70.1188 73.6644Z" fill="#575A89"/>
<path d="M49.6167 43.4507C49.6167 44.9202 50.5711 47.196 51.7748 48.1716C52.5848 48.828 53.6551 48.8003 54.0678 47.9018C54.4912 46.9801 55.9505 44.8135 58.519 43.4507C61.9429 41.6339 57.3047 38.5256 54.0678 38.9995C51.6355 39.3557 49.6167 40.9924 49.6167 43.4507Z" fill="#2F2E41"/>
<path d="M51.9096 41.4274C53.3994 41.4274 54.6072 40.2196 54.6072 38.7298C54.6072 37.2399 53.3994 36.0321 51.9096 36.0321C50.4197 36.0321 49.2119 37.2399 49.2119 38.7298C49.2119 40.2196 50.4197 41.4274 51.9096 41.4274Z" fill="#2F2E41"/>
<path d="M55.0114 37.7856C55.0112 37.1055 54.7539 36.4506 54.2911 35.9522C53.8284 35.4539 53.1943 35.1488 52.5161 35.0982C52.5831 35.0932 52.6501 35.088 52.7184 35.088C53.4339 35.088 54.1201 35.3722 54.626 35.8781C55.1319 36.384 55.4161 37.0701 55.4161 37.7856C55.4161 38.5011 55.1319 39.1872 54.626 39.6931C54.1201 40.199 53.4339 40.4833 52.7184 40.4833C52.6501 40.4833 52.5831 40.478 52.5161 40.473C53.1943 40.4224 53.8284 40.1174 54.2911 39.619C54.7539 39.1206 55.0112 38.4657 55.0114 37.7856Z" fill="#2F2E41"/>
<path d="M55.8887 46.2831C56.2239 46.2831 56.4957 45.9208 56.4957 45.4738C56.4957 45.0269 56.2239 44.6646 55.8887 44.6646C55.5535 44.6646 55.2817 45.0269 55.2817 45.4738C55.2817 45.9208 55.5535 46.2831 55.8887 46.2831Z" fill="#FFB8B8"/>
<path d="M132.322 108.17H90.3277L81.435 66.1322H73.8457V64.246H82.9639L91.8566 106.284H132.322V108.17Z" fill="#3F3D56"/>
<path d="M96.4816 115.85C98.714 115.85 100.524 114.041 100.524 111.808C100.524 109.576 98.714 107.766 96.4816 107.766C94.2492 107.766 92.4395 109.576 92.4395 111.808C92.4395 114.041 94.2492 115.85 96.4816 115.85Z" fill="#3F3D56"/>
<path d="M126.663 115.85C128.896 115.85 130.705 114.041 130.705 111.808C130.705 109.576 128.896 107.766 126.663 107.766C124.431 107.766 122.621 109.576 122.621 111.808C122.621 114.041 124.431 115.85 126.663 115.85Z" fill="#3F3D56"/>
<path d="M131.556 107.282H90.6982L83.4893 71.6565H138.321C138.601 71.6565 138.878 71.7172 139.132 71.8342C139.386 71.9513 139.612 72.122 139.793 72.3346C139.975 72.5473 140.109 72.7968 140.185 73.066C140.261 73.3352 140.278 73.6177 140.235 73.8941L133.47 105.646C133.4 106.103 133.168 106.519 132.817 106.82C132.466 107.12 132.018 107.284 131.556 107.282ZM91.1419 106.743H131.556C131.89 106.745 132.213 106.626 132.466 106.409C132.72 106.192 132.887 105.892 132.937 105.562L139.702 73.8105C139.734 73.611 139.722 73.407 139.667 73.2127C139.612 73.0184 139.515 72.8383 139.384 72.6848C139.253 72.5313 139.09 72.4081 138.906 72.3236C138.723 72.2392 138.523 72.1954 138.321 72.1954H84.1435L91.1419 106.743Z" fill="#3F3D56"/>
<path d="M98.641 107.168L93.9199 71.9698L94.4516 71.882L99.1727 107.08L98.641 107.168Z" fill="#3F3D56"/>
<path d="M124.892 106.898L124.36 106.812L128.943 71.8829L129.475 71.9691L124.892 106.898Z" fill="#3F3D56"/>
<path d="M112.385 71.9259H111.846V107.124H112.385V71.9259Z" fill="#3F3D56"/>
<path d="M86.2425 81.3575L86.2412 81.8965L138.411 82.0228L138.412 81.4839L86.2425 81.3575Z" fill="#3F3D56"/>
<path d="M134.731 98.0063L88.8984 98.3196L88.9021 98.8585L134.734 98.5452L134.731 98.0063Z" fill="#3F3D56"/>
<path d="M74.6547 66.5365C76.2918 66.5365 77.6189 65.8126 77.6189 64.9196C77.6189 64.0267 76.2918 63.3028 74.6547 63.3028C73.0176 63.3028 71.6904 64.0267 71.6904 64.9196C71.6904 65.8126 73.0176 66.5365 74.6547 66.5365Z" fill="#3F3D56"/>
</svg>
