<svg width="148" height="117" viewBox="0 0 148 117" fill="none" xmlns="http://www.w3.org/2000/svg">
<path d="M147.851 2.43091H59.1841V44.505H147.851V2.43091Z" fill="#E6E6E6"/>
<path d="M145.316 6.03882H61.7192V41.1425H145.316V6.03882Z" fill="white"/>
<path d="M147.814 0H59.1465V3.76684H147.814V0Z" fill="#5ACAEF"/>
<path d="M61.9452 2.91307C62.3308 2.91307 62.6434 2.60048 62.6434 2.21489C62.6434 1.82931 62.3308 1.51672 61.9452 1.51672C61.5596 1.51672 61.2471 1.82931 61.2471 2.21489C61.2471 2.60048 61.5596 2.91307 61.9452 2.91307Z" fill="white"/>
<path d="M64.5951 2.91307C64.9807 2.91307 65.2933 2.60048 65.2933 2.21489C65.2933 1.82931 64.9807 1.51672 64.5951 1.51672C64.2096 1.51672 63.897 1.82931 63.897 2.21489C63.897 2.60048 64.2096 2.91307 64.5951 2.91307Z" fill="white"/>
<path d="M67.246 2.91307C67.6316 2.91307 67.9442 2.60048 67.9442 2.21489C67.9442 1.82931 67.6316 1.51672 67.246 1.51672C66.8604 1.51672 66.5479 1.82931 66.5479 2.21489C66.5479 2.60048 66.8604 2.91307 67.246 2.91307Z" fill="white"/>
<path d="M125.635 11.7191H111.737V35.4626H125.635V11.7191Z" fill="#F2F2F2"/>
<path d="M109.434 11.7186H81.3999V18.2543H109.434V11.7186Z" fill="#5ACAEF"/>
<path d="M109.434 20.0745H81.3999V27.1065H109.434V20.0745Z" fill="#F2F2F2"/>
<path d="M109.434 28.9266H81.3999V35.4623H109.434V28.9266Z" fill="#F2F2F2"/>
<path d="M42.3035 70.2049C42.3062 69.7235 42.2071 69.2471 42.0128 68.8067C41.8185 68.3663 41.5334 67.9719 41.1761 67.6494C40.8188 67.3269 40.3973 67.0835 39.9394 66.9352C39.4815 66.7869 38.9974 66.737 38.5189 66.7889C38.3675 66.806 38.2174 66.8337 38.0699 66.8716L26.5066 56.9601L27.1976 53.2356L21.4983 51.3885L19.7799 57.3573C19.5767 58.0737 19.6098 58.8365 19.8744 59.5325C20.1389 60.2285 20.6209 60.8207 21.2487 61.2212L35.4735 70.2181C35.4735 70.33 35.4794 70.4418 35.4909 70.5531C35.5429 71.0317 35.6954 71.4939 35.9384 71.9094C36.1814 72.3249 36.5095 72.6844 36.9012 72.9643C37.2928 73.2442 37.7392 73.4382 38.211 73.5336C38.6829 73.6289 39.1695 73.6235 39.6392 73.5177C39.7757 73.4874 39.9101 73.4486 40.0417 73.4014C40.7001 73.1634 41.2698 72.7295 41.6741 72.158C42.0785 71.5865 42.2981 70.9049 42.3035 70.2049Z" fill="#9F616A"/>
<path d="M13.5555 81.7H28.4643C28.4643 82.1285 43.8296 82.4763 43.8296 82.4763C44.0708 82.6579 44.2906 82.8662 44.4848 83.0974C45.0684 83.7934 45.3874 84.6733 45.3855 85.5817V86.2027C45.3851 87.2321 44.976 88.2192 44.2481 88.9471C43.5203 89.675 42.5332 90.084 41.5038 90.0844H13.5555C12.5263 90.0835 11.5395 89.6743 10.8117 88.9465C10.084 88.2188 9.67472 87.2319 9.67383 86.2027V85.5817C9.67526 84.5526 10.0847 83.5661 10.8123 82.8385C11.54 82.1108 12.5265 81.7014 13.5555 81.7Z" fill="#3F3D56"/>
<path d="M29.7728 89.9302H25.7358V116.015H29.7728V89.9302Z" fill="#3F3D56"/>
<path d="M41.2627 116.34C41.2627 116.828 35.1453 116.528 27.5991 116.528C20.0529 116.528 13.9355 116.828 13.9355 116.34C13.9355 115.851 20.0529 111.978 27.5991 111.978C35.1453 111.978 41.2627 115.851 41.2627 116.34Z" fill="#3F3D56"/>
<path d="M37.6184 112.816L41.4253 112.816L43.2365 102.942L37.6177 102.942L37.6184 112.816Z" fill="#9F616A"/>
<path d="M36.6472 116.506L48.9229 116.506V116.351C48.9229 115.723 48.7993 115.102 48.5592 114.522C48.3191 113.943 47.9671 113.416 47.5235 112.972C47.0798 112.529 46.5531 112.177 45.9734 111.936C45.3937 111.696 44.7724 111.573 44.145 111.573H44.1445L36.647 111.573L36.6472 116.506Z" fill="#2F2E41"/>
<path d="M43.3126 106.693L50.9024 89.6732C51.5361 88.2387 51.6062 86.6181 51.0987 85.1343C50.5912 83.6505 49.5434 82.4122 48.1639 81.6663L31.7013 72.8384L24.1891 72.1994L17.2596 71.5696L17.2096 71.6542C17.1457 71.7622 15.6558 74.3356 16.6629 77.1574C17.4268 79.2978 19.4139 80.9697 22.5689 82.1266C29.9331 84.8268 38.4402 87.1346 41.7558 88.0013C41.9024 88.0388 42.0393 88.1069 42.1577 88.2011C42.276 88.2953 42.3731 88.4134 42.4425 88.5478C42.5121 88.6806 42.5534 88.8264 42.5639 88.976C42.5744 89.1256 42.5538 89.2757 42.5034 89.4169L35.4523 105.259C35.3786 105.46 35.3521 105.675 35.3748 105.888C35.3974 106.1 35.4686 106.305 35.5829 106.486C35.6972 106.667 35.8516 106.819 36.034 106.931C36.2164 107.043 36.4221 107.111 36.6352 107.131L41.9039 107.515C41.9487 107.519 41.9932 107.521 42.0375 107.521C42.3073 107.521 42.5714 107.443 42.7977 107.296C43.024 107.149 43.2028 106.939 43.3126 106.693Z" fill="#CBCBCB"/>
<path d="M35.1344 112.816L38.9412 112.816L40.7526 102.942L35.1338 102.942L35.1344 112.816Z" fill="#9F616A"/>
<path d="M34.1633 116.506L46.439 116.506V116.351C46.439 115.723 46.3154 115.102 46.0753 114.522C45.8352 113.943 45.4833 113.416 45.0396 112.972C44.5959 112.529 44.0692 112.177 43.4895 111.936C42.9099 111.696 42.2886 111.573 41.6611 111.573H41.6606L34.1631 111.573L34.1633 116.506Z" fill="#2F2E41"/>
<path d="M40.5178 107.624L48.1075 90.6047C48.7412 89.1702 48.8113 87.5496 48.3038 86.0658C47.7963 84.582 46.7485 83.3437 45.369 82.5977L28.9065 73.7699L21.3942 73.1309L15.9667 72.6601L15.9674 72.5857C15.9035 72.6937 14.4136 75.2671 15.4207 78.0889C16.1846 80.2293 16.619 81.9012 19.7741 83.0581C27.1382 85.7583 35.6453 88.0661 38.961 88.9328C39.1075 88.9703 39.2444 89.0384 39.3628 89.1326C39.4811 89.2267 39.5782 89.3449 39.6476 89.4793C39.7172 89.6121 39.7586 89.7579 39.769 89.9075C39.7795 90.0571 39.759 90.2072 39.7086 90.3484L32.6574 106.19C32.5837 106.391 32.5572 106.606 32.5799 106.819C32.6025 107.032 32.6738 107.237 32.7881 107.418C32.9024 107.599 33.0567 107.751 33.2391 107.863C33.4216 107.974 33.6273 108.043 33.8403 108.063L39.1091 108.446C39.1538 108.451 39.1983 108.453 39.2426 108.453C39.5125 108.453 39.7765 108.374 40.0028 108.227C40.2291 108.08 40.4079 107.871 40.5178 107.624Z" fill="#CBCBCB"/>
<path d="M26.2144 72.9708C26.5783 72.7134 31.804 75.4551 32.7357 73.2814C28.3881 62.4126 31.384 57.7193 28.721 51.4866C28.2519 50.4116 27.5453 49.4568 26.6543 48.6942C25.7632 47.9315 24.7109 47.3807 23.5764 47.0832L16.6671 46.7345L16.6313 46.7518C15.0722 47.5154 13.8006 48.7612 13.0053 50.3044C12.2099 51.8476 11.933 53.606 12.2157 55.319C12.2403 62.1021 16.2987 67.2755 14.8797 72.1954C14.8201 72.4011 14.8028 72.6167 14.8286 72.8292C14.8544 73.0418 14.9229 73.247 15.0299 73.4324C15.1337 73.6117 15.2731 73.7678 15.4395 73.8911C15.6059 74.0144 15.7958 74.1023 15.9975 74.1495L25.1205 72.9325C25.3337 72.9832 25.5551 72.9879 25.7702 72.9463C25.9853 72.9046 26.189 72.8176 26.3678 72.6911L26.2144 72.9708Z" fill="#2F2E41"/>
<path d="M18.9728 44.1537C23.1851 44.1537 26.5999 40.739 26.5999 36.5266C26.5999 32.3143 23.1851 28.8995 18.9728 28.8995C14.7605 28.8995 11.3457 32.3143 11.3457 36.5266C11.3457 40.739 14.7605 44.1537 18.9728 44.1537Z" fill="#9F616A"/>
<path d="M16.5436 43.5274C16.9488 43.7047 17.7787 40.4756 17.4069 39.8298C16.8541 38.8693 16.8868 38.8762 16.5198 38.2408C16.1528 37.6053 16.0707 36.7356 16.5459 36.1764C17.0212 35.6173 18.121 35.6915 18.3379 36.3925C18.1983 35.061 19.5154 33.9907 20.82 33.6899C22.1245 33.3891 23.5006 33.5758 24.8124 33.3082C26.3348 32.9975 27.9188 31.7214 27.3114 30.0473C27.2071 29.7686 27.0511 29.5121 26.8514 29.2915C26.1497 28.5024 25.168 28.1655 24.2081 27.8397C22.2114 27.162 20.16 26.4757 18.0527 26.5505C14.5902 26.6735 11.3172 29.067 10.1507 32.3294C10.0054 32.7364 9.89294 33.1544 9.81423 33.5794C9.09092 37.4686 11.3494 41.3049 15.0176 42.7859L16.5436 43.5274Z" fill="#2F2E41"/>
<path d="M56.5412 55.7923L57.4158 60.9857C57.4256 61.0436 57.4192 61.1031 57.3974 61.1576L50.5356 78.303C50.5084 78.3709 50.4588 78.4274 50.395 78.4631C50.3311 78.4989 50.257 78.5116 50.1849 78.4993C50.1128 78.487 50.0471 78.4503 49.9988 78.3954C49.9505 78.3405 49.9225 78.2707 49.9194 78.1977L49.6287 71.3077C49.6268 71.262 49.6347 71.2163 49.6519 71.1739L55.9298 55.7251C55.956 55.6606 56.0025 55.6065 56.0622 55.5709C56.122 55.5352 56.1918 55.5201 56.2609 55.5277C56.3301 55.5353 56.3949 55.5652 56.4454 55.613C56.496 55.6608 56.5296 55.7237 56.5412 55.7923Z" fill="#3F3D56"/>
<path d="M56.0556 56.1909L56.8867 60.6526L50.7974 76.2982L50.0068 71.2653L56.0556 56.1909Z" fill="#5ACAEF"/>
<path d="M29.4135 78.2232C29.5633 78.8081 49.2337 79.4411 49.4377 79.2642C49.6207 79.0375 49.7793 78.7922 49.9109 78.5322C50.117 78.1641 50.3078 77.7948 50.3078 77.7948L49.9845 71.5739L30.6078 69.5032C30.6078 69.5032 29.7505 74.6946 29.4814 77.0796C29.4206 77.4575 29.3978 77.8407 29.4135 78.2232Z" fill="#3F3D56"/>
<path opacity="0.1" d="M47.4499 72.2321L47.4516 77.5916L38.8813 76.9823L39.2606 71.6498L47.4499 72.2321Z" fill="black"/>
<path opacity="0.1" d="M36.2816 73.1605L36.3335 73.154L35.9288 75.4325L31.1675 75.094L31.33 72.8085L36.2816 73.1605Z" fill="black"/>
<path opacity="0.1" d="M29.4135 78.2232C29.5633 78.8081 49.2337 79.4412 49.4377 79.2643C49.6207 79.0376 49.7793 78.7922 49.9109 78.5323L29.4814 77.0796C29.4206 77.4576 29.3978 77.8407 29.4135 78.2232Z" fill="black"/>
<path d="M21.5153 68.9335L38.1081 72.03C38.1496 72.134 38.1965 72.2357 38.2484 72.3348C38.4739 72.7589 38.7861 73.1309 39.1647 73.4265C39.5433 73.7222 39.9799 73.9348 40.4461 74.0507C40.9141 74.1684 41.4019 74.1848 41.8768 74.0988C42.3517 74.0127 42.8027 73.8262 43.1997 73.5518C43.9188 73.0581 44.4218 72.3081 44.6056 71.4554C44.7895 70.6027 44.6402 69.712 44.1884 68.9659C43.7366 68.2198 43.0165 67.6747 42.1758 67.4424C41.335 67.2102 40.4372 67.3083 39.6665 67.7167C39.5322 67.7887 39.4032 67.87 39.2802 67.96L24.8681 63.0367L24.1304 59.321L18.1523 59.7166L18.7718 65.9452C18.8469 66.6721 19.1544 67.3554 19.6487 67.8937C20.1429 68.432 20.7975 68.7966 21.5153 68.9335Z" fill="#9F616A"/>
<path d="M17.9502 62.4947L26.6368 59.6397L24.6105 53.8216C24.3415 53.0491 23.808 52.3965 23.1043 51.9792C22.4006 51.5619 21.5721 51.4068 20.7652 51.5413C19.9489 51.6774 19.2081 52.1008 18.6767 52.7352C18.1453 53.3696 17.8583 54.1731 17.8674 55.0006L17.9502 62.4947Z" fill="#2F2E41"/>
<path d="M73.054 116.811H0.191241C0.140521 116.811 0.0918777 116.791 0.056013 116.755C0.0201484 116.719 0 116.67 0 116.619C0 116.569 0.0201484 116.52 0.056013 116.484C0.0918777 116.448 0.140521 116.428 0.191241 116.428H73.054C73.1048 116.428 73.1534 116.448 73.1893 116.484C73.2251 116.52 73.2453 116.569 73.2453 116.619C73.2453 116.67 73.2251 116.719 73.1893 116.755C73.1534 116.791 73.1048 116.811 73.054 116.811Z" fill="#CBCBCB"/>
<path d="M101.397 110.785C104.892 112.594 106.446 116.532 106.446 116.532C106.446 116.532 102.334 117.537 98.839 115.729C95.3443 113.92 93.7905 109.982 93.7905 109.982C93.7905 109.982 97.9027 108.977 101.397 110.785Z" fill="#F1F1F1"/>
<path d="M100.279 112.088C102.365 115.425 106.416 116.655 106.416 116.655C106.416 116.655 107.085 112.475 105 109.138C102.914 105.801 98.8636 104.571 98.8636 104.571C98.8636 104.571 98.194 108.751 100.279 112.088Z" fill="#F1F1F1"/>
<path d="M112.833 116.735H91.0311C90.9804 116.735 90.9317 116.715 90.8958 116.679C90.86 116.643 90.8398 116.594 90.8398 116.544C90.8398 116.493 90.86 116.444 90.8958 116.408C90.9317 116.373 90.9804 116.352 91.0311 116.352H112.833C112.883 116.352 112.932 116.373 112.968 116.408C113.004 116.444 113.024 116.493 113.024 116.544C113.024 116.594 113.004 116.643 112.968 116.679C112.932 116.715 112.883 116.735 112.833 116.735Z" fill="#CBCBCB"/>
</svg>
