<svg width="194" height="106" viewBox="0 0 194 106" fill="none" xmlns="http://www.w3.org/2000/svg">
<path d="M43.7523 91.4135C43.7153 95.6407 43.4056 99.861 42.8253 104.048C42.805 104.195 42.7829 104.342 42.7625 104.489L3.17535 104.268C3.05912 104.122 2.94471 103.974 2.83387 103.825C2.46428 103.33 2.11788 102.821 1.79989 102.294C0.27149 99.7574 -0.42823 96.7872 0.272957 94.7379L0.285513 94.7061C0.436872 94.2573 0.675382 93.8429 0.987346 93.4866C2.58604 91.687 5.81843 91.987 8.75176 93.4396C6.12076 90.5596 4.02579 86.9256 3.86662 83.6818C3.71054 80.5178 5.36496 78.2576 7.15939 76.3368C7.21827 76.2733 7.27713 76.2115 7.336 76.1498C7.36458 76.1181 7.39487 76.0881 7.42336 76.0563C8.82339 74.5925 10.4556 73.1495 12.8181 73.3241C15.4091 73.5159 18.2818 75.6862 20.2961 78.2151C22.3103 80.7423 23.6488 83.6133 25.0055 86.4151C26.364 89.2153 27.8337 92.087 30.0136 94.4803C27.0611 90.7458 24.6806 86.4967 23.8012 82.3641C22.9218 78.2316 23.6957 74.2625 26.3271 72.3162C27.126 71.7436 28.0504 71.3706 29.023 71.2285C29.1365 71.2096 29.2518 71.1943 29.369 71.1808C31.8049 70.9036 34.7133 71.7461 37.1879 73.7599C39.913 75.9772 41.8024 79.2644 42.7425 82.3849C43.6825 85.5054 43.7827 88.5095 43.7523 91.4135Z" fill="#F2F2F2"/>
<path d="M17.8522 104.35L17.0952 104.346C16.8549 104.196 16.6134 104.047 16.3708 103.901C16.2206 103.806 16.0686 103.714 15.9166 103.621C13.4057 102.088 10.8791 100.617 8.33674 99.2085C5.79674 97.799 3.24396 96.4543 0.678411 95.1746C0.610405 95.145 0.554924 95.0925 0.521606 95.0263C0.488288 94.96 0.479238 94.8841 0.496034 94.8119C0.498782 94.8024 0.503043 94.7935 0.50865 94.7854C0.544434 94.7182 0.624411 94.6903 0.741137 94.7477C1.05582 94.9055 1.37232 95.0633 1.68698 95.2246C4.25953 96.5262 6.82105 97.8927 9.37152 99.3242C11.9202 100.755 14.4544 102.249 16.9741 103.806C17.0271 103.839 17.0801 103.873 17.1331 103.905C17.3734 104.053 17.6119 104.202 17.8522 104.35Z" fill="white"/>
<path d="M27.6128 104.405L27.1447 104.402C27.0391 104.255 26.9353 104.107 26.8298 103.959C24.3493 100.481 21.8693 97.0023 19.3899 93.5239C15.3295 87.8293 11.2703 82.1346 7.21238 76.44C7.18833 76.4094 7.17045 76.3743 7.15972 76.3369C7.12501 76.2108 7.21763 76.1369 7.33634 76.1499C7.38638 76.1571 7.43433 76.1748 7.47698 76.202C7.51963 76.2291 7.556 76.265 7.58366 76.3073C9.86012 79.5009 12.136 82.6933 14.4113 85.8844C18.4506 91.5506 22.4892 97.2162 26.5273 102.881C26.7842 103.241 27.041 103.602 27.2979 103.962C27.4034 104.109 27.509 104.257 27.6128 104.405Z" fill="white"/>
<path d="M38.0406 101.686C38.0167 102.475 37.9645 103.252 37.8963 104.021C37.8831 104.168 37.8699 104.315 37.8566 104.462L37.3655 104.459C37.3805 104.312 37.3956 104.165 37.4088 104.018C37.5125 102.907 37.5862 101.783 37.5962 100.629C37.6092 97.4291 37.2974 94.236 36.6654 91.0991C35.9937 87.7214 35.0291 84.4086 33.7828 81.1982C32.4746 77.8123 30.8974 74.5366 29.0663 71.4024C29.0318 71.3513 29.0164 71.2897 29.0229 71.2284C29.0432 71.0885 29.2296 71.047 29.3689 71.1807C29.3964 71.207 29.4201 71.2369 29.4393 71.2698C29.6659 71.6593 29.8883 72.05 30.1066 72.4419C31.8701 75.5935 33.3797 78.8806 34.6208 82.2721C35.8029 85.4929 36.7021 88.8107 37.3082 92.1877C37.8759 95.3207 38.1213 98.5035 38.0406 101.686Z" fill="white"/>
<path d="M175.177 81.4276C175.177 79.529 168.031 77.9899 159.216 77.9899C150.401 77.9899 143.255 79.529 143.255 81.4276C143.255 82.6444 146.193 83.7128 150.621 84.3237V103.159C150.621 103.582 150.79 103.988 151.089 104.288C151.388 104.587 151.794 104.755 152.218 104.755C152.641 104.755 153.047 104.587 153.346 104.288C153.645 103.988 153.814 103.582 153.814 103.159V84.663C155.501 84.7937 157.319 84.8653 159.216 84.8653C161.112 84.8653 162.93 84.7937 164.618 84.663V103.159C164.618 103.582 164.786 103.988 165.085 104.288C165.385 104.587 165.791 104.755 166.214 104.755C166.637 104.755 167.043 104.587 167.343 104.288C167.642 103.988 167.81 103.582 167.81 103.159V84.3237C172.239 83.7128 175.177 82.6444 175.177 81.4276Z" fill="#CCCCCC"/>
<path d="M160.98 49.962C164.778 49.962 167.856 46.8837 167.856 43.0865C167.856 39.2893 164.778 36.2111 160.98 36.2111C157.183 36.2111 154.105 39.2893 154.105 43.0865C154.105 46.8837 157.183 49.962 160.98 49.962Z" fill="#2F2E41"/>
<path d="M143.87 101.912H140.86L139.428 90.3008H143.871L143.87 101.912Z" fill="#A0616A"/>
<path d="M138.71 101.052H144.516V104.708H135.054C135.054 104.228 135.149 103.752 135.332 103.309C135.516 102.865 135.785 102.462 136.125 102.123C136.464 101.783 136.867 101.514 137.311 101.331C137.754 101.147 138.23 101.052 138.71 101.052Z" fill="#2F2E41"/>
<path d="M139.171 100.232L136.298 99.331L138.408 87.8232L142.647 89.1534L139.171 100.232Z" fill="#A0616A"/>
<path d="M134.505 97.8665L140.044 99.6049L138.95 103.093L129.923 100.26C130.066 99.8017 130.299 99.3765 130.607 99.0084C130.915 98.6402 131.293 98.3363 131.718 98.1141C132.144 97.8919 132.609 97.7556 133.087 97.7131C133.565 97.6706 134.047 97.7228 134.505 97.8665Z" fill="#2F2E41"/>
<path d="M140.151 95.5994C140.019 95.5994 139.888 95.5756 139.765 95.5292L137.55 94.6988C137.301 94.6047 137.095 94.4244 136.968 94.1907C136.841 93.9571 136.802 93.6857 136.859 93.4259C137.416 90.9188 139.317 82.3833 140.357 77.8051C141.591 72.3746 159.595 71.3655 160.36 71.3253L160.423 71.3219L162.448 73.8669C163.18 76.219 162.948 78.0537 161.759 79.3201C158.289 83.0149 147.928 80.7222 146.692 80.432L141.185 94.888C141.105 95.0973 140.963 95.2773 140.778 95.4044C140.594 95.5314 140.375 95.5994 140.151 95.5994Z" fill="#2F2E41"/>
<path d="M143.342 97.3183C143.211 97.3183 143.08 97.2945 142.956 97.248L140.742 96.4176C140.493 96.3235 140.287 96.1432 140.16 95.9096C140.033 95.676 139.994 95.4045 140.051 95.1448C140.608 92.6377 142.509 84.1021 143.549 79.5239C144.783 74.0935 162.786 73.0844 163.552 73.0441L163.615 73.0408L165.64 75.5857C166.372 77.9379 166.14 79.7726 164.951 81.039C161.481 84.7335 151.12 82.4411 149.884 82.1509L144.377 96.6068C144.297 96.8161 144.155 96.9962 143.97 97.1232C143.786 97.2503 143.567 97.3183 143.342 97.3183Z" fill="#2F2E41"/>
<path d="M136.935 61.9539C137.016 62.0627 137.089 62.1778 137.152 62.298L149.263 63.574L151.006 61.1838L154.957 63.3433L151.533 69.1435L136.681 65.3565C136.306 65.7218 135.829 65.9644 135.313 66.052C134.797 66.1396 134.266 66.068 133.792 65.8469C133.318 65.6257 132.922 65.2653 132.658 64.8137C132.393 64.3622 132.272 63.8408 132.311 63.3189C132.35 62.797 132.547 62.2994 132.876 61.8922C133.205 61.485 133.65 61.1875 134.152 61.0393C134.654 60.8911 135.189 60.8993 135.686 61.0626C136.183 61.226 136.619 61.5369 136.935 61.9539L136.935 61.9539Z" fill="#A0616A"/>
<path d="M165.079 76.5597C164.904 76.5592 164.731 76.517 164.575 76.4367C162.154 75.2053 157.438 73.0728 153.065 72.6266C152.916 72.6119 152.771 72.5661 152.64 72.4921C152.509 72.4181 152.395 72.3175 152.305 72.1969C152.214 72.0749 152.148 71.9355 152.113 71.7871C152.078 71.6388 152.074 71.4848 152.1 71.3348C152.495 69.1505 153.4 63.5884 153.284 59.1306C153.249 57.7599 153.682 56.4183 154.512 55.3264C155.341 54.2345 156.517 53.4573 157.846 53.1224C158.647 52.9113 159.46 52.751 160.281 52.6426C161.224 52.5231 162.182 52.6262 163.078 52.9437C163.975 53.2611 164.784 53.784 165.442 54.4705C166.1 55.1571 166.588 55.9881 166.866 56.8971C167.145 57.8061 167.207 58.7678 167.048 59.7051C166.268 64.3248 165.482 70.777 166.165 75.2811C166.197 75.483 166.171 75.6896 166.093 75.8781C166.014 76.0666 165.884 76.2295 165.719 76.349C165.533 76.4852 165.309 76.559 165.079 76.5597Z" fill="#5ACAEF"/>
<path d="M153.508 64.8098C153.357 64.8096 153.207 64.7784 153.069 64.7182L149.914 63.3525C149.645 63.2358 149.434 63.0173 149.326 62.7449C149.218 62.4726 149.223 62.1686 149.339 61.8996L151.778 56.266C151.925 55.9255 152.138 55.6173 152.404 55.3591C152.67 55.1008 152.985 54.8975 153.33 54.7609C153.675 54.6243 154.043 54.5569 154.414 54.5627C154.785 54.5685 155.151 54.6474 155.492 54.7947C155.832 54.9421 156.14 55.155 156.398 55.4215C156.656 55.688 156.859 56.0027 156.996 56.3476C157.132 56.6926 157.199 57.0611 157.193 57.432C157.187 57.8029 157.108 58.169 156.961 58.5093L154.522 64.1429C154.436 64.3407 154.294 64.5092 154.114 64.6277C153.934 64.7461 153.723 64.8094 153.508 64.8098V64.8098Z" fill="#5ACAEF"/>
<path d="M160.729 50.7262C164.06 50.7262 166.76 48.026 166.76 44.6952C166.76 41.3644 164.06 38.6642 160.729 38.6642C157.398 38.6642 154.698 41.3644 154.698 44.6952C154.698 48.026 157.398 50.7262 160.729 50.7262Z" fill="#A0616A"/>
<path d="M154.59 41.7321C157.447 43.4759 160.667 44.5371 164.001 44.833L163.009 43.6444C163.731 43.9114 164.491 44.0624 165.261 44.0915C166.029 44.0796 166.835 43.7836 167.271 43.1507C167.466 42.836 167.581 42.479 167.608 42.11C167.635 41.741 167.572 41.371 167.425 41.0316C167.122 40.3546 166.652 39.7663 166.058 39.3225C165.005 38.4897 163.762 37.9302 162.441 37.6941C161.119 37.4579 159.76 37.5523 158.484 37.9689C157.608 38.2305 156.824 38.7334 156.222 39.42C155.65 40.1253 154.549 40.7537 154.842 41.6132L154.59 41.7321Z" fill="#2F2E41"/>
<path d="M161.743 36.865C159.841 34.936 157.539 33.4475 154.999 32.5042C153.369 31.9002 151.595 31.5271 149.891 31.8701C148.187 32.2131 146.575 33.392 146.099 35.0642C145.711 36.4315 146.112 37.9037 146.715 39.1908C147.319 40.4779 148.124 41.6715 148.612 43.0067C149.11 44.369 149.26 45.8341 149.048 47.2689C148.836 48.7038 148.269 50.063 147.398 51.2232C146.528 52.3833 145.381 53.3077 144.063 53.9124C142.744 54.517 141.296 54.7828 139.849 54.6857C141.523 54.9102 143.067 55.6971 144.703 56.116C146.34 56.5348 148.272 56.5064 149.488 55.3338C150.775 54.0932 150.801 52.0761 150.739 50.2896C150.646 47.634 150.554 44.9783 150.461 42.3227C150.414 40.9683 150.374 39.5706 150.862 38.3065C151.351 37.0425 152.511 35.9355 153.866 35.9471C154.894 35.9558 155.803 36.5779 156.626 37.1915C157.45 37.8051 158.322 38.4597 159.345 38.551C160.368 38.6422 161.536 37.8852 161.459 36.861" fill="#2F2E41"/>
<path d="M150.59 75.0105C150.19 75.0101 149.796 74.921 149.434 74.7497C149.073 74.5784 148.755 74.3291 148.502 74.0199C148.249 73.7107 148.067 73.3491 147.971 72.9613C147.874 72.5735 147.865 72.1691 147.943 71.7773C148.022 71.3855 148.186 71.016 148.425 70.6953C148.663 70.3747 148.97 70.111 149.323 69.9232C149.676 69.7354 150.066 69.6282 150.465 69.6092C150.864 69.5903 151.262 69.6602 151.631 69.8138H151.631C151.742 69.8606 151.85 69.9151 151.953 69.9769L162.94 65.0446L163.248 62.065L167.984 61.9382L167.953 66.8988C167.947 67.4734 167.756 68.0309 167.408 68.4884C167.06 68.9459 166.574 69.2791 166.022 69.4385L153.175 73.0955C153.15 73.1804 153.12 73.2639 153.086 73.3457C152.88 73.8381 152.533 74.2587 152.089 74.5548C151.645 74.851 151.124 75.0095 150.59 75.0105V75.0105Z" fill="#A0616A"/>
<path d="M167.582 64.3699C167.448 64.4381 167.3 64.4779 167.15 64.4869L163.718 64.6979C163.426 64.7155 163.139 64.6164 162.919 64.4224C162.7 64.2283 162.566 63.9552 162.548 63.6628L162.171 57.5357C162.148 57.1652 162.198 56.7937 162.318 56.4425C162.438 56.0913 162.627 55.7673 162.872 55.4889C163.118 55.2106 163.416 54.9834 163.749 54.8204C164.083 54.6574 164.445 54.5618 164.816 54.539C165.186 54.5162 165.558 54.5667 165.909 54.6876C166.26 54.8085 166.584 54.9974 166.861 55.2435C167.139 55.4896 167.366 55.7881 167.528 56.1219C167.691 56.4557 167.786 56.8183 167.808 57.1888L168.185 63.316C168.198 63.5312 168.148 63.7456 168.041 63.9328C167.934 64.1201 167.774 64.272 167.582 64.3699L167.582 64.3699Z" fill="#5ACAEF"/>
<path d="M160.125 75.6301H140.727C140.499 75.6301 140.28 75.5396 140.119 75.3784C139.958 75.2172 139.867 74.9986 139.867 74.7707C139.867 74.5428 139.958 74.3242 140.119 74.163C140.28 74.0018 140.499 73.9113 140.727 73.9113H160.125C160.353 73.9113 160.572 74.0018 160.733 74.163C160.894 74.3242 160.985 74.5428 160.985 74.7707C160.985 74.9986 160.894 75.2172 160.733 75.3784C160.572 75.5396 160.353 75.6301 160.125 75.6301Z" fill="#3F3D56"/>
<path d="M132.255 74.034V62.002C132.256 61.5788 132.424 61.1731 132.723 60.8739C133.023 60.5747 133.428 60.4064 133.851 60.4059H155.706C156.129 60.4064 156.534 60.5747 156.834 60.8739C157.133 61.1731 157.301 61.5788 157.302 62.002V74.034C157.301 74.4572 157.133 74.8629 156.834 75.1621C156.534 75.4613 156.129 75.6296 155.706 75.6301H133.851C133.428 75.6296 133.023 75.4613 132.723 75.1621C132.424 74.8629 132.256 74.4572 132.255 74.034Z" fill="#3F3D56"/>
<path d="M144.778 69.4913C145.592 69.4913 146.252 68.8317 146.252 68.018C146.252 67.2043 145.592 66.5447 144.778 66.5447C143.965 66.5447 143.305 67.2043 143.305 68.018C143.305 68.8317 143.965 69.4913 144.778 69.4913Z" fill="white"/>
<path d="M67.9641 53.8588C67.7651 53.5576 67.5026 53.3037 67.1948 53.1149C66.8871 52.9262 66.5418 52.8072 66.1831 52.7664C65.8244 52.7255 65.4612 52.7638 65.1189 52.8786C64.7767 52.9933 64.4637 53.1817 64.2022 53.4305L56.4048 49.4059L56.8895 53.9399L64.2197 57.0666C64.6668 57.4784 65.2493 57.7118 65.857 57.7227C66.4646 57.7336 67.0552 57.5213 67.5167 57.1258C67.9783 56.7304 68.2787 56.1795 68.3612 55.5773C68.4436 54.9752 68.3024 54.3637 67.9641 53.8588H67.9641Z" fill="#FFB8B8"/>
<path d="M61.0346 55.6837C60.8935 55.7484 60.7404 55.7827 60.5852 55.7844C60.43 55.7861 60.2761 55.755 60.1337 55.6933L52.7273 52.4805C50.1949 51.3824 48.1476 49.4017 46.9662 46.9071L43.0724 38.6882C42.7851 38.319 42.5733 37.8968 42.4492 37.4457C42.3252 36.9946 42.2912 36.5235 42.3494 36.0593C42.4075 35.5951 42.5566 35.1469 42.7881 34.7404C43.0195 34.3338 43.3289 33.9769 43.6984 33.69C44.0679 33.4031 44.4904 33.1918 44.9416 33.0683C45.3928 32.9448 45.864 32.9114 46.3281 32.9702C46.7922 33.0289 47.2402 33.1785 47.6465 33.4105C48.0528 33.6424 48.4093 33.9522 48.6958 34.3221L55.54 47.0205L61.8597 51.7944C62.0406 51.9317 62.175 52.1212 62.2446 52.3373C62.3143 52.5534 62.316 52.7857 62.2493 53.0028L61.629 55.0063C61.5624 55.2212 61.4319 55.4106 61.2549 55.5494C61.187 55.6027 61.1131 55.6478 61.0346 55.6837Z" fill="#CCCCCC"/>
<path d="M42.9011 29.0224C46.232 29.0224 48.9321 26.3222 48.9321 22.9913C48.9321 19.6605 46.232 16.9603 42.9011 16.9603C39.5703 16.9603 36.8701 19.6605 36.8701 22.9913C36.8701 26.3222 39.5703 29.0224 42.9011 29.0224Z" fill="#FFB8B8"/>
<path d="M45.344 102.107H48.3542L49.7865 90.4956H45.3433L45.344 102.107Z" fill="#FFB8B8"/>
<path d="M54.1602 104.902L44.6989 104.903L44.6987 101.247L50.5045 101.247C51.474 101.247 52.4038 101.632 53.0894 102.317C53.7749 103.003 54.1601 103.933 54.1602 104.902L54.1602 104.902Z" fill="#2F2E41"/>
<path d="M35.5217 102.107H38.532L39.9643 90.4956H35.521L35.5217 102.107Z" fill="#FFB8B8"/>
<path d="M44.3379 104.902L34.8766 104.903L34.8764 101.247L40.6822 101.247C41.6517 101.247 42.5815 101.632 43.2671 102.317C43.9527 103.003 44.3378 103.933 44.3379 104.902L44.3379 104.902Z" fill="#2F2E41"/>
<path d="M34.4704 98.7836C34.3667 98.6652 34.2895 98.526 34.244 98.3753C34.1984 98.2246 34.1857 98.0659 34.2065 97.9098L39.4771 58.3795L52.5721 60.6034L53.9696 59.7648L50.3557 97.2715C50.3257 97.5247 50.2092 97.7598 50.026 97.9371C49.8427 98.1144 49.604 98.2231 49.3499 98.2448L45.3848 98.5752C45.2272 98.5884 45.0685 98.5676 44.9196 98.5142C44.7707 98.4607 44.6351 98.376 44.5218 98.2656C44.4085 98.1552 44.3202 98.0217 44.2629 97.8742C44.2057 97.7268 44.1807 97.5687 44.1898 97.4108L45.2164 79.5488C45.2182 79.5184 45.2087 79.4885 45.1897 79.4648C45.1707 79.441 45.1436 79.4252 45.1136 79.4203C45.0836 79.4154 45.0528 79.4218 45.0273 79.4383C45.0017 79.4548 44.9832 79.4801 44.9753 79.5095L39.8965 98.3434C39.833 98.5778 39.6941 98.7848 39.5014 98.9326C39.3086 99.0803 39.0725 99.1605 38.8297 99.1608H35.3018C35.1444 99.1608 34.9887 99.1272 34.8453 99.0621C34.7019 98.9971 34.5741 98.9021 34.4704 98.7836Z" fill="#2F2E41"/>
<path d="M43.5396 61.1465C43.3893 61.0104 43.196 60.9313 42.9935 60.9228C42.7909 60.9144 42.5917 60.9771 42.4306 61.1002L39.8126 63.1366C39.6701 63.2477 39.5025 63.3222 39.3246 63.3534C39.1466 63.3847 38.9637 63.3718 38.7919 63.3159C38.6201 63.26 38.4646 63.1627 38.3391 63.0327C38.2137 62.9027 38.122 62.7439 38.0722 62.5702C36.7881 58.0728 33.8786 46.7522 34.5954 38.7845C35.0016 34.2681 38.9016 30.8357 43.2891 31.1237C46.2887 31.3237 48.2621 33.0541 49.1544 36.2666C51.3454 44.1543 53.7532 58.6227 54.2136 61.4431C54.2499 61.662 54.2193 61.8867 54.1256 62.0877C54.032 62.2888 53.8798 62.4569 53.689 62.57C52.4502 63.3136 51.035 63.7119 49.5902 63.7234C47.8421 63.7234 45.746 63.1148 43.5396 61.1465Z" fill="#CCCCCC"/>
<path d="M44.527 63.9523C44.5563 63.5925 44.5064 63.2307 44.3807 62.8922C44.2551 62.5538 44.0568 62.2471 43.7997 61.9936C43.5427 61.7402 43.2332 61.5461 42.8931 61.4252C42.553 61.3043 42.1905 61.2594 41.8311 61.2937L38.1793 53.3149L35.7627 57.1817L39.601 64.1657C39.6987 64.7656 40.013 65.3087 40.4844 65.6923C40.9559 66.0759 41.5516 66.2733 42.1588 66.247C42.766 66.2207 43.3424 65.9725 43.7789 65.5496C44.2154 65.1267 44.4816 64.5583 44.527 63.9523H44.527Z" fill="#FFB8B8"/>
<path d="M37.9484 61.1119C37.7975 61.0758 37.6558 61.0083 37.5326 60.9138C37.4095 60.8193 37.3076 60.6999 37.2336 60.5635L33.3884 53.4648C32.0734 51.0379 31.6848 48.2159 32.2947 45.5239L34.3029 36.6538C34.3047 36.1861 34.3987 35.7233 34.5795 35.2919C34.7603 34.8604 35.0243 34.4689 35.3565 34.1396C35.6887 33.8103 36.0826 33.5497 36.5156 33.3727C36.9485 33.1957 37.4122 33.1058 37.8799 33.1081C38.3477 33.1104 38.8104 33.2048 39.2416 33.386C39.6728 33.5672 40.0641 33.8317 40.3931 34.1642C40.722 34.4967 40.9823 34.8908 41.1588 35.324C41.3354 35.7571 41.4249 36.2208 41.4221 36.6886L38.9711 50.9042L40.9979 58.5607C41.0555 58.7804 41.0442 59.0124 40.9657 59.2255C40.8871 59.4385 40.7451 59.6223 40.5587 59.752L38.8342 60.9457C38.6492 61.0737 38.4296 61.1422 38.2046 61.1421C38.1183 61.1422 38.0323 61.1321 37.9484 61.1119Z" fill="#CCCCCC"/>
<path opacity="0.2" d="M40.9326 42.6838L38.7227 52.0148L41.9148 59.8725L39.7049 52.2604L40.9326 42.6838Z" fill="black"/>
<path d="M39.4593 27.9507C38.9228 27.9606 38.3897 27.8642 37.8907 27.6669C37.6712 27.5823 37.4433 27.5127 37.2241 27.4281C35.2888 26.6803 34.0139 24.6192 33.9682 22.5449C33.9225 20.4706 34.9967 18.4573 36.5918 17.1305C38.1869 15.8037 40.253 15.1225 42.3218 14.965C44.5502 14.7953 47.0595 15.3604 48.3047 17.2163C48.6362 17.7103 48.868 18.3096 48.6716 18.9061C48.6128 19.086 48.5077 19.2474 48.3669 19.3741C47.8108 19.8688 47.2564 19.4968 46.6895 19.4639C45.9103 19.4188 45.2105 20.0495 44.9589 20.7883C44.7074 21.5272 44.8181 22.3406 45.0212 23.0942C45.1759 23.5477 45.2735 24.0187 45.3116 24.4964C45.328 24.7359 45.2829 24.9756 45.1807 25.1928C45.0785 25.41 44.9225 25.5975 44.7275 25.7376C44.2406 26.0319 43.6012 25.8615 43.114 25.5677C42.6268 25.2739 42.2058 24.8653 41.6796 24.6491C41.1533 24.4328 40.4463 24.4808 40.14 24.9603C40.0427 25.1347 39.9768 25.3249 39.9454 25.5222C39.6708 26.7733 39.7339 26.6996 39.4593 27.9507L39.4593 27.9507Z" fill="#2F2E41"/>
<path d="M91.7501 48.4176C91.6501 48.2911 91.5802 48.1433 91.5458 47.9857C91.5115 47.828 91.5136 47.6646 91.5519 47.5078C92.4677 43.6718 92.4677 39.674 91.5518 35.8379C91.5135 35.6812 91.5115 35.5178 91.5458 35.3601C91.5802 35.2024 91.6501 35.0547 91.7501 34.9281C91.8481 34.8033 91.9732 34.7025 92.1159 34.6333C92.2587 34.5641 92.4154 34.5284 92.574 34.5289H102.365C102.615 34.5294 102.857 34.6187 103.047 34.7808C103.238 34.9429 103.365 35.1674 103.405 35.4143C104.044 39.5622 104.044 43.7835 103.405 47.9314C103.365 48.1783 103.238 48.4028 103.047 48.565C102.857 48.7271 102.615 48.8163 102.365 48.8168H92.574C92.4154 48.8173 92.2587 48.7816 92.1159 48.7125C91.9732 48.6433 91.8481 48.5424 91.7501 48.4176Z" fill="#E6E6E6"/>
<path d="M76.6041 13.8886C76.504 13.762 76.4341 13.6143 76.3998 13.4566C76.3654 13.299 76.3675 13.1356 76.4059 12.9789C77.3217 9.14283 77.3217 5.14506 76.4059 1.30899C76.3675 1.15228 76.3654 0.988887 76.3998 0.83125C76.4341 0.673614 76.504 0.525891 76.6041 0.399331C76.702 0.274476 76.8271 0.173611 76.9698 0.104411C77.1126 0.0352099 77.2693 -0.000498047 77.4279 5.24731e-06H87.2187C87.4689 0.000509476 87.7108 0.0897706 87.9013 0.251905C88.0918 0.414038 88.2186 0.638521 88.2592 0.885392C88.8978 5.03332 88.8978 9.25457 88.2592 13.4025C88.2186 13.6494 88.0918 13.8739 87.9013 14.036C87.7108 14.1981 87.4689 14.2874 87.2187 14.2879H77.4279C77.2693 14.2884 77.1126 14.2527 76.9698 14.1835C76.8271 14.1143 76.702 14.0134 76.6041 13.8886Z" fill="#E6E6E6"/>
<path d="M100.696 25.4388C100.057 21.2908 100.057 17.0696 100.696 12.9217C100.736 12.6748 100.863 12.4503 101.054 12.2881C101.244 12.126 101.486 12.0367 101.736 12.0363H111.527C111.686 12.0358 111.842 12.0715 111.985 12.1407C112.128 12.2099 112.253 12.3107 112.351 12.4356C112.451 12.5621 112.521 12.7099 112.555 12.8675C112.589 13.0251 112.587 13.1885 112.549 13.3453C111.633 17.1813 111.633 21.1791 112.549 25.0152C112.587 25.1719 112.589 25.3353 112.555 25.4929C112.521 25.6505 112.451 25.7983 112.351 25.9248C112.253 26.0497 112.128 26.1505 111.985 26.2197C111.842 26.2889 111.686 26.3247 111.527 26.3241H101.736C101.486 26.3237 101.244 26.2344 101.054 26.0723C100.863 25.9101 100.736 25.6856 100.696 25.4388Z" fill="#5ACAEF"/>
<path d="M59.7075 25.0017C59.0689 20.8538 59.0689 16.6326 59.7075 12.4846C59.748 12.2378 59.8748 12.0133 60.0653 11.8511C60.2558 11.689 60.4977 11.5998 60.7479 11.5992H70.5387C70.6973 11.5987 70.854 11.6344 70.9968 11.7037C71.1396 11.7729 71.2647 11.8737 71.3626 11.9986C71.4626 12.1251 71.5325 12.2729 71.5668 12.4305C71.6012 12.5881 71.5991 12.7515 71.5608 12.9082C70.645 16.7443 70.6449 20.7421 71.5607 24.5781C71.5991 24.7349 71.6012 24.8982 71.5668 25.0559C71.5325 25.2135 71.4626 25.3613 71.3626 25.4878C71.2647 25.6127 71.1396 25.7135 70.9968 25.7827C70.854 25.8519 70.6973 25.8876 70.5387 25.8871H60.7479C60.4977 25.8866 60.2558 25.7974 60.0653 25.6352C59.8748 25.4731 59.748 25.2486 59.7075 25.0017Z" fill="#FF6584"/>
<path d="M62.1294 53.8963C62.0277 53.7676 61.9566 53.6174 61.9217 53.4572C61.8868 53.297 61.8889 53.1309 61.9279 52.9715C62.8588 49.0725 62.8588 45.009 61.9278 41.1099C61.8889 40.9506 61.8868 40.7845 61.9217 40.6242C61.9567 40.464 62.0277 40.3138 62.1294 40.1852C62.2289 40.0583 62.3561 39.9558 62.5012 39.8855C62.6463 39.8152 62.8056 39.7789 62.9668 39.7794H72.9184C73.1727 39.7799 73.4185 39.8706 73.6122 40.0354C73.8058 40.2002 73.9347 40.4284 73.9759 40.6794C74.625 44.8954 74.625 49.186 73.9759 53.4021C73.9347 53.653 73.8058 53.8812 73.6122 54.046C73.4185 54.2108 73.1727 54.3016 72.9184 54.302H62.9668C62.8056 54.3025 62.6463 54.2663 62.5012 54.1959C62.3561 54.1256 62.2289 54.0231 62.1294 53.8963Z" fill="#5ACAEF"/>
<path d="M3.08961 105.128H192.974C193.051 105.128 193.126 105.097 193.18 105.042C193.235 104.987 193.266 104.913 193.266 104.835C193.266 104.758 193.235 104.683 193.18 104.629C193.126 104.574 193.051 104.543 192.974 104.543H3.08961C3.05114 104.543 3.01303 104.55 2.97746 104.565C2.94189 104.58 2.90956 104.601 2.88232 104.628C2.85508 104.655 2.83347 104.688 2.81873 104.723C2.80398 104.759 2.79639 104.797 2.79639 104.835C2.79639 104.874 2.80398 104.912 2.81873 104.947C2.83347 104.983 2.85508 105.015 2.88232 105.042C2.90956 105.07 2.94189 105.091 2.97746 105.106C3.01303 105.12 3.05114 105.128 3.08961 105.128Z" fill="#3F3D56"/>
<path d="M70.9976 45.1378H65.7552C65.5599 45.1376 65.3727 45.0599 65.2346 44.9218C65.0964 44.7837 65.0188 44.5965 65.0186 44.4012V44.0883C65.0188 43.893 65.0964 43.7058 65.2346 43.5677C65.3727 43.4296 65.5599 43.3519 65.7552 43.3517H70.9976C71.1929 43.3519 71.3801 43.4296 71.5183 43.5677C71.6564 43.7058 71.734 43.893 71.7343 44.0883V44.4012C71.734 44.5965 71.6564 44.7837 71.5183 44.9218C71.3802 45.0599 71.1929 45.1376 70.9976 45.1378Z" fill="white"/>
<path d="M70.9976 48.2189H65.7552C65.5599 48.2187 65.3727 48.141 65.2346 48.0029C65.0964 47.8648 65.0188 47.6775 65.0186 47.4822V47.1694C65.0188 46.9741 65.0964 46.7868 65.2346 46.6487C65.3727 46.5106 65.5599 46.433 65.7552 46.4327H70.9976C71.1929 46.433 71.3801 46.5106 71.5183 46.6487C71.6564 46.7868 71.734 46.9741 71.7343 47.1694V47.4822C71.734 47.6775 71.6564 47.8648 71.5183 48.0029C71.3802 48.141 71.1929 48.2187 70.9976 48.2189Z" fill="white"/>
<path d="M67.5259 17.6587H62.388C62.1927 17.6584 62.0055 17.5808 61.8674 17.4427C61.7293 17.3046 61.6516 17.1173 61.6514 16.922V16.6342C61.6516 16.4389 61.7293 16.2517 61.8674 16.1136C62.0055 15.9755 62.1927 15.8978 62.388 15.8976H67.5259C67.7212 15.8978 67.9084 15.9755 68.0465 16.1136C68.1846 16.2517 68.2623 16.4389 68.2625 16.6342V16.922C68.2623 17.1173 68.1846 17.3046 68.0465 17.4427C67.9084 17.5808 67.7212 17.6584 67.5259 17.6587Z" fill="white"/>
<path d="M100.351 39.299H95.2132C95.0179 39.2988 94.8307 39.2211 94.6926 39.083C94.5545 38.9449 94.4768 38.7577 94.4766 38.5624V38.2745C94.4768 38.0792 94.5545 37.8919 94.6926 37.7538C94.8307 37.6157 95.0179 37.5381 95.2132 37.5378H100.351C100.546 37.5381 100.734 37.6157 100.872 37.7538C101.01 37.8919 101.087 38.0792 101.088 38.2745V38.5624C101.087 38.7577 101.01 38.9449 100.872 39.083C100.734 39.2211 100.546 39.2988 100.351 39.299Z" fill="white"/>
<path d="M100.351 42.9365H95.2132C95.0179 42.9363 94.8307 42.8586 94.6926 42.7205C94.5545 42.5824 94.4768 42.3951 94.4766 42.1998V41.9119C94.4768 41.7166 94.5545 41.5294 94.6926 41.3913C94.8307 41.2532 95.0179 41.1755 95.2132 41.1753H100.351C100.546 41.1755 100.734 41.2532 100.872 41.3913C101.01 41.5294 101.087 41.7166 101.088 41.9119V42.1998C101.087 42.3951 101.01 42.5824 100.872 42.7205C100.734 42.8586 100.546 42.9363 100.351 42.9365Z" fill="white"/>
<path d="M100.351 46.5741H95.2132C95.0179 46.5738 94.8307 46.4962 94.6926 46.3581C94.5545 46.22 94.4768 46.0327 94.4766 45.8374V45.5495C94.4768 45.3542 94.5545 45.167 94.6926 45.0289C94.8307 44.8908 95.0179 44.8131 95.2132 44.8129H100.351C100.546 44.8131 100.734 44.8908 100.872 45.0289C101.01 45.167 101.087 45.3542 101.088 45.5495V45.8374C101.087 46.0327 101.01 46.22 100.872 46.3581C100.734 46.4962 100.546 46.5738 100.351 46.5741Z" fill="white"/>
<path d="M67.5259 20.69H62.388C62.1927 20.6898 62.0055 20.6121 61.8674 20.474C61.7293 20.3359 61.6516 20.1487 61.6514 19.9534V19.6655C61.6516 19.4702 61.7293 19.2829 61.8674 19.1448C62.0055 19.0067 62.1927 18.929 62.388 18.9288H67.5259C67.7212 18.929 67.9084 19.0067 68.0465 19.1448C68.1846 19.2829 68.2623 19.4702 68.2625 19.6655V19.9534C68.2623 20.1487 68.1846 20.3359 68.0465 20.474C67.9084 20.6121 67.7212 20.6898 67.5259 20.69Z" fill="white"/>
<path d="M85.2489 5.37642H80.1112C79.9159 5.37621 79.7286 5.29853 79.5905 5.16043C79.4524 5.02232 79.3747 4.83508 79.3745 4.63977V4.35189C79.3747 4.15658 79.4524 3.96934 79.5905 3.83123C79.7286 3.69313 79.9159 3.61545 80.1112 3.61523H85.2489C85.4442 3.61545 85.6315 3.69313 85.7696 3.83123C85.9077 3.96934 85.9854 4.15658 85.9856 4.35189V4.63977C85.9854 4.83508 85.9077 5.02232 85.7696 5.16043C85.6315 5.29853 85.4442 5.37621 85.2489 5.37642Z" fill="white"/>
<path d="M108.693 18.3989H103.555C103.36 18.3987 103.172 18.321 103.034 18.1829C102.896 18.0448 102.819 17.8575 102.818 17.6622V17.3744C102.819 17.179 102.896 16.9918 103.034 16.8537C103.172 16.7156 103.36 16.6379 103.555 16.6377H108.693C108.888 16.6379 109.075 16.7156 109.214 16.8537C109.352 16.9918 109.429 17.179 109.43 17.3744V17.6622C109.429 17.8575 109.352 18.0448 109.214 18.1829C109.075 18.321 108.888 18.3987 108.693 18.3989Z" fill="white"/>
</svg>
