<svg width="123" height="128" viewBox="0 0 123 128" fill="none" xmlns="http://www.w3.org/2000/svg">
<path d="M115.787 118.703C115.787 123.499 89.8675 127.387 57.8935 127.387C25.9195 127.387 0 123.499 0 118.703C0 115.308 12.9924 112.366 31.9273 110.939C39.7355 110.349 48.5577 110.019 57.8935 110.019C61.7313 110.019 65.4813 110.075 69.108 110.181C95.7147 110.966 115.787 114.482 115.787 118.703Z" fill="#3F3D56"/>
<path opacity="0.1" d="M50.4233 120.477C62.6971 120.477 72.647 119.265 72.647 117.769C72.647 116.274 62.6971 115.061 50.4233 115.061C38.1496 115.061 28.1997 116.274 28.1997 117.769C28.1997 119.265 38.1496 120.477 50.4233 120.477Z" fill="black"/>
<path d="M50.33 119.73C61.9334 119.73 71.3398 109.696 71.3398 97.3196C71.3398 84.9426 61.9334 74.9092 50.33 74.9092C38.7267 74.9092 29.3203 84.9426 29.3203 97.3196C29.3203 109.696 38.7267 119.73 50.33 119.73Z" fill="#3F3D56"/>
<path d="M56.9599 110.579H43.8872V122.531H56.9599V110.579Z" fill="#5ACAEF"/>
<path d="M74.0478 113.474L73.3008 117.582L78.1564 118.329L81.3312 116.462L81.1444 113.474H74.0478Z" fill="#575A89"/>
<path d="M49.5827 36.3447C49.5827 36.3447 49.2092 40.64 48.2755 40.8268C47.3417 41.0135 50.3298 48.4836 50.3298 48.4836H54.8118L58.3601 47.5499L56.6794 43.4413C56.6794 43.4413 54.4383 40.4532 56.1191 38.0255C57.7999 35.5977 49.5827 36.3447 49.5827 36.3447Z" fill="#A0616A"/>
<path opacity="0.1" d="M49.5827 36.3447C49.5827 36.3447 49.2092 40.64 48.2755 40.8268C47.3417 41.0135 50.3298 48.4836 50.3298 48.4836H54.8118L58.3601 47.5499L56.6794 43.4413C56.6794 43.4413 54.4383 40.4532 56.1191 38.0255C57.7999 35.5977 49.5827 36.3447 49.5827 36.3447Z" fill="black"/>
<path d="M40.2455 69.2133C40.2455 69.2133 35.3899 78.5509 39.3118 80.4184C43.2336 82.286 44.1673 82.0992 44.1673 82.6595C44.1673 83.2197 43.4203 83.033 43.7938 83.9668C44.1673 84.9005 43.0468 88.6356 44.1673 90.8766C45.2879 93.1177 44.9143 94.7984 44.9143 94.7984C44.9143 94.7984 44.9143 94.9852 45.2879 95.7322C45.6614 96.4792 45.8481 97.0395 45.6614 97.413C45.4746 97.7865 44.3541 100.214 45.4746 100.775C46.5951 101.335 52.3845 101.708 52.9447 100.775C53.505 99.8408 52.3845 99.2805 52.9447 98.7203C53.505 98.16 53.8785 97.9732 53.505 97.5997C53.1315 97.2262 52.758 92.5574 52.758 92.5574C52.758 92.5574 53.6917 87.1416 53.3182 86.3945C52.9447 85.6475 52.3845 84.9005 52.758 84.3403C53.1315 83.78 53.505 83.9668 53.6917 83.2197C53.8785 82.4727 54.252 80.792 54.252 80.792L56.3063 80.6052L61.1619 81.539C61.1619 81.539 66.5777 87.5151 72.5538 89.3826C72.5538 89.3826 74.2346 91.0634 74.7948 91.0634C75.3551 91.0634 75.3551 91.0634 75.1684 91.4369C74.9816 91.8104 74.4213 91.8104 74.7948 92.1839C75.1684 92.5574 75.7286 91.9971 75.3551 92.5574C74.9816 93.1177 74.6081 93.1177 74.9816 93.4912C75.3551 93.8647 74.7948 95.919 74.7948 96.1057C74.7948 96.2925 73.1141 113.847 73.6743 114.221C74.2346 114.594 82.0782 115.715 82.6385 114.221C83.1987 112.727 82.265 110.859 82.265 110.859C82.265 110.859 85.0663 88.4488 84.3193 86.9548C83.5722 85.4608 80.9577 78.7377 66.9512 74.4423C66.9512 74.4423 63.0294 73.6953 63.0294 73.1351C63.0294 72.5748 62.6559 69.0265 61.9089 68.8398C61.1619 68.653 56.8665 68.4662 56.8665 68.4662L51.4507 70.147L43.9806 68.8398L40.2455 69.2133Z" fill="#2F2E41"/>
<path d="M46.7821 100.588L45.8483 103.949C45.8483 103.949 45.1013 109.365 46.0351 110.673C46.7685 111.699 48.0781 112.957 50.5068 113.177C51.1874 113.24 51.869 113.068 52.4388 112.69C53.0086 112.313 53.4324 111.752 53.6402 111.101C53.6681 111.023 53.6855 110.942 53.692 110.859C53.692 110.486 53.1317 106.004 53.1317 106.004L52.1979 101.335L52.0112 100.028L46.7821 100.588Z" fill="#2F2E41"/>
<path d="M74.0476 116.649C74.0476 116.649 73.1139 115.715 72.9271 116.649C72.7404 117.582 71.9934 121.504 73.3006 121.691C74.6079 121.878 87.1204 123.745 88.4276 122.998C89.7349 122.251 92.1627 121.131 90.6687 120.57C89.1746 120.01 84.8793 118.329 84.8793 118.329C84.8793 118.329 82.4515 115.155 82.078 114.968C81.7045 114.781 79.6502 115.155 78.7165 115.902C77.7827 116.649 74.0476 116.649 74.0476 116.649Z" fill="#2F2E41"/>
<path d="M54.0652 40.2664C57.2626 40.2664 59.8546 37.6745 59.8546 34.4771C59.8546 31.2797 57.2626 28.6877 54.0652 28.6877C50.8679 28.6877 48.2759 31.2797 48.2759 34.4771C48.2759 37.6745 50.8679 40.2664 54.0652 40.2664Z" fill="#A0616A"/>
<path d="M53.5048 47.5499L51.2638 45.1221L48.7797 40.2665C48.7797 40.2665 46.9685 39.7063 46.5949 40.64C46.2214 41.5738 39.4983 44.5619 39.4983 44.5619C39.4983 44.5619 41.1791 60.2491 40.4321 61.7432C39.6851 63.2372 38.3778 69.2133 39.4983 69.7735C40.6188 70.3338 45.8479 69.7735 47.5287 70.5205C49.2095 71.2676 54.0651 71.2676 55.3723 70.3338C56.6796 69.4 57.0531 68.653 58.3604 69.2133C59.4733 69.6902 62.075 53.3839 62.8241 48.5246C62.8872 48.1164 62.8348 47.6988 62.6728 47.3189C62.5108 46.939 62.2457 46.6121 61.9075 46.3751C60.2318 45.1997 57.2139 43.1742 56.6796 43.4414C55.9326 43.8149 53.5048 47.5499 53.5048 47.5499Z" fill="#575A89"/>
<path d="M61.535 46.8029C61.9735 46.9125 62.368 47.1537 62.6655 47.4941C62.9629 47.8344 63.1491 48.2577 63.1991 48.7069L64.7098 62.3034C64.7098 62.3034 60.9747 70.3338 59.1072 64.9179C57.2396 59.5021 61.535 46.8029 61.535 46.8029Z" fill="#575A89"/>
<path d="M61.1618 63.6106L65.2704 62.4901C65.2704 62.4901 66.0174 67.7192 66.7644 67.7192C67.5114 67.7192 64.1499 70.7072 62.4691 70.3337C60.7883 69.9602 58.3605 68.653 58.1738 67.7192C57.987 66.7854 59.8546 62.8636 59.8546 62.8636L61.1618 63.6106Z" fill="#575A89"/>
<path d="M49.6947 36.9745C50.0883 36.1065 50.02 35.094 50.3454 34.1982C50.5197 33.7185 50.8025 33.2856 51.1718 32.9333C51.5411 32.581 51.9868 32.3189 52.4741 32.1673C52.9614 32.0158 53.4772 31.979 53.9811 32.0598C54.4851 32.1406 54.9635 32.3368 55.379 32.633C55.7977 32.9316 56.2174 33.351 56.7284 33.294C57.2787 33.2326 57.7696 32.6187 58.2755 32.8437C58.8363 33.0931 58.6849 34.0981 59.253 34.3302C59.552 34.4524 59.9054 34.2642 60.0779 33.9911C60.2287 33.7041 60.3109 33.3859 60.318 33.0618C60.3964 32.2653 60.4673 31.4223 60.1218 30.7003C59.9765 30.4556 59.8499 30.2003 59.743 29.9365C59.6826 29.6902 59.6583 29.4364 59.671 29.183C59.6679 28.2468 59.5995 27.2703 59.1284 26.4613C58.6056 25.5635 57.6391 24.9895 56.6309 24.739C55.6226 24.4885 54.5663 24.5269 53.5311 24.6145C51.8199 24.7594 50.0353 25.07 48.687 26.1338C48.5038 26.2677 48.3461 26.4334 48.2214 26.623C48.103 26.8483 48.0194 27.0901 47.9734 27.3404C47.6819 28.5274 47.2448 29.6739 46.6721 30.7537C46.3967 31.2115 46.1715 31.6977 46.0007 32.2039C45.8577 32.7183 45.8674 33.3045 46.1666 33.7467C46.4103 34.1066 46.7999 34.2985 47.1059 34.5927C47.4092 34.8844 47.5511 35.4452 47.887 35.666C48.1803 35.8587 48.5315 35.7227 48.8307 35.927C49.2147 36.1893 49.2424 36.7644 49.6947 36.9745Z" fill="#2F2E41"/>
<path d="M54.439 50.3512L54.9992 49.2307C54.9992 49.2307 63.2164 51.6584 64.8971 53.8995C64.8971 53.8995 69.0057 51.2849 71.2467 51.6584L73.4878 52.0319L66.5779 58.1948L57.8005 57.4478L54.439 50.3512Z" fill="#F2F2F2"/>
<path d="M54.0651 49.2307L46.4082 59.8756L57.4266 65.2914C57.4266 65.2914 58.4567 65.8517 59.249 65.2914L66.5775 61.9299L73.4874 52.0319L66.5775 55.5803C66.5775 55.5803 65.8305 54.0862 64.3365 54.8332L54.0651 49.2307Z" fill="#5ACAEF"/>
<path d="M65.8303 68.0927L67.3243 64.1709C67.3243 64.1709 70.6858 59.8756 68.8183 57.8213C66.9508 55.767 64.8965 63.7974 64.8965 63.7974L65.8303 68.0927Z" fill="#A0616A"/>
<path d="M48.5928 67.4668L51.8528 64.8239C51.8528 64.8239 56.9157 62.7948 56.3308 60.0809C55.746 57.3669 49.9401 63.2828 49.9401 63.2828L48.5928 67.4668Z" fill="#A0616A"/>
<path opacity="0.1" d="M40.5253 48.577H40.3386C40.3386 48.577 37.4439 45.1221 36.8837 49.7909C36.3234 54.4597 34.4559 69.9602 39.3115 70.5205C44.167 71.0807 47.622 68.1861 47.622 68.1861C47.622 68.1861 51.1703 62.7702 49.863 62.7702C49.2305 62.7702 47.5102 62.4862 45.9412 62.5835C44.2674 62.6873 42.7634 63.1588 42.8598 62.6769C43.0465 61.7431 45.7544 49.8843 40.5253 48.577Z" fill="black"/>
<path d="M40.2449 44.9353L39.4979 44.5618C39.4979 44.5618 36.5098 45.1221 35.9496 49.7909C35.3893 54.4597 33.5218 69.9603 38.3774 70.5205C43.233 71.0808 49.7693 69.7735 49.7693 69.7735C49.7693 69.7735 51.0766 62.6769 49.7693 62.6769C48.462 62.6769 41.7389 63.6106 41.9257 62.6769C42.1124 61.7431 45.474 46.2426 40.2449 44.9353Z" fill="#575A89"/>
<path d="M63.123 65.9451L65.1824 62.7888L66.4846 67.9994L63.123 69.4934V65.9451Z" fill="#575A89"/>
<path d="M20.8177 20.9376C23.6025 20.9376 25.8601 18.68 25.8601 15.8952C25.8601 13.1104 23.6025 10.8529 20.8177 10.8529C18.0329 10.8529 15.7754 13.1104 15.7754 15.8952C15.7754 18.68 18.0329 20.9376 20.8177 20.9376Z" fill="#F2F2F2"/>
<path d="M26.794 53.4326H14.8418V65.3848H26.794V53.4326Z" fill="#F2F2F2"/>
<path d="M69.4721 0L72.4973 5.23973L75.5224 10.4795H69.4721H63.4219L66.4469 5.23973L69.4721 0Z" fill="#F2F2F2"/>
<path d="M122.181 31.4173C122.108 33.6528 121.564 35.4446 120.548 36.7927C119.531 38.141 118.323 38.8152 116.924 38.8153C115.785 38.8153 114.786 38.1556 113.928 36.836C113.07 35.5165 112.641 33.4867 112.641 30.7468C112.641 30.1411 112.656 29.5642 112.684 29.0162C112.713 28.4683 112.749 27.9492 112.793 27.4588L113.55 20.342H108.553C107.688 29.3407 106.977 34.6945 106.422 36.4034C105.867 38.1123 104.926 38.9667 103.599 38.9668C103 38.952 102.429 38.7127 101.998 38.2962C101.749 38.075 101.551 37.8011 101.42 37.4944C101.29 37.1876 101.228 36.8556 101.241 36.5224C101.241 35.8593 101.764 34.9327 102.81 33.7427C103.855 32.553 104.436 31.4678 104.551 30.4872L105.849 20.342H103.751C103.159 20.3455 102.577 20.4901 102.053 20.7638C101.57 20.9854 101.15 21.3237 100.83 21.748L99.9002 23.1324H99.1431C99.8495 20.9405 100.718 19.2929 101.75 18.1896C102.781 17.0864 103.967 16.5348 105.308 16.5348H121.835V20.342H116.254C116.081 22.0725 115.947 23.803 115.853 25.5335C115.76 27.264 115.713 29.0018 115.713 30.7467C115.713 31.9294 115.987 32.8884 116.535 33.6238C117.083 34.3592 117.768 34.727 118.59 34.727C119.095 34.727 119.625 34.5214 120.18 34.1104C120.444 33.9255 120.664 33.6857 120.827 33.4075C120.989 33.1294 121.089 32.8195 121.121 32.4989C121.164 32.1818 121.197 31.9331 121.218 31.7526C121.24 31.5725 121.251 31.4607 121.251 31.4173L122.181 31.4173Z" fill="#5ACAEF"/>
<path opacity="0.1" d="M122.181 31.4173C122.108 33.6528 121.564 35.4446 120.548 36.7927C119.531 38.141 118.323 38.8152 116.924 38.8153C115.785 38.8153 114.786 38.1556 113.928 36.836C113.07 35.5165 112.641 33.4867 112.641 30.7468C112.641 30.1411 112.656 29.5642 112.684 29.0162C112.713 28.4683 112.749 27.9492 112.793 27.4588L113.55 20.342H108.553C107.688 29.3407 106.977 34.6945 106.422 36.4034C105.867 38.1123 104.926 38.9667 103.599 38.9668C103 38.952 102.429 38.7127 101.998 38.2962C101.749 38.075 101.551 37.8011 101.42 37.4944C101.29 37.1876 101.228 36.8556 101.241 36.5224C101.241 35.8593 101.764 34.9327 102.81 33.7427C103.855 32.553 104.436 31.4678 104.551 30.4872L105.849 20.342H103.751C103.159 20.3455 102.577 20.4901 102.053 20.7638C101.57 20.9854 101.15 21.3237 100.83 21.748L99.9002 23.1324H99.1431C99.8495 20.9405 100.718 19.2929 101.75 18.1896C102.781 17.0864 103.967 16.5348 105.308 16.5348H121.835V20.342H116.254C116.081 22.0725 115.947 23.803 115.853 25.5335C115.76 27.264 115.713 29.0018 115.713 30.7467C115.713 31.9294 115.987 32.8884 116.535 33.6238C117.083 34.3592 117.768 34.727 118.59 34.727C119.095 34.727 119.625 34.5214 120.18 34.1104C120.444 33.9255 120.664 33.6857 120.827 33.4075C120.989 33.1294 121.089 32.8195 121.121 32.4989C121.164 32.1818 121.197 31.9331 121.218 31.7526C121.24 31.5725 121.251 31.4607 121.251 31.4173L122.181 31.4173Z" fill="black"/>
<path d="M122.181 30.7414C122.108 32.9769 121.564 34.7687 120.548 36.1168C119.531 37.4651 118.323 38.1393 116.924 38.1394C115.785 38.1394 114.786 37.4797 113.928 36.1601C113.07 34.8406 112.641 32.8108 112.641 30.0709C112.641 29.4652 112.656 28.8883 112.684 28.3403C112.713 27.7924 112.749 27.2733 112.793 26.7829L113.55 19.6661H108.553C107.688 28.6648 106.977 34.0186 106.422 35.7275C105.867 37.4364 104.926 38.2908 103.599 38.2909C103 38.2761 102.429 38.0368 101.998 37.6203C101.749 37.3991 101.551 37.1252 101.42 36.8185C101.29 36.5117 101.228 36.1797 101.241 35.8465C101.241 35.1834 101.764 34.2568 102.81 33.0668C103.855 31.8771 104.436 30.7919 104.551 29.8113L105.849 19.6661H103.751C103.159 19.6696 102.577 19.8142 102.053 20.0879C101.57 20.3095 101.15 20.6478 100.83 21.0721L99.9002 22.4565H99.1431C99.8495 20.2646 100.718 18.617 101.75 17.5137C102.781 16.4105 103.967 15.8589 105.308 15.8589H121.835V19.6661H116.254C116.081 21.3966 115.947 23.1271 115.853 24.8576C115.76 26.5882 115.713 28.3259 115.713 30.0708C115.713 31.2535 115.987 32.2125 116.535 32.9479C117.083 33.6834 117.768 34.0511 118.59 34.0511C119.095 34.0511 119.625 33.8455 120.18 33.4345C120.444 33.2496 120.664 33.0098 120.827 32.7317C120.989 32.4535 121.089 32.1436 121.121 31.823C121.164 31.5059 121.197 31.2572 121.218 31.0767C121.24 30.8966 121.251 30.7848 121.251 30.7414H122.181Z" fill="#5ACAEF"/>
</svg>
