<svg width="214" height="187" viewBox="0 0 214 187" fill="none" xmlns="http://www.w3.org/2000/svg">
<path d="M96.197 186.032C128.728 186.032 155.099 184.707 155.099 183.072C155.099 181.438 128.728 180.112 96.197 180.112C63.6663 180.112 37.2949 181.438 37.2949 183.072C37.2949 184.707 63.6663 186.032 96.197 186.032Z" fill="#E6E6E6"/>
<path d="M29.2302 58.4604C45.3736 58.4604 58.4604 45.3736 58.4604 29.2302C58.4604 13.0868 45.3736 0 29.2302 0C13.0868 0 0 13.0868 0 29.2302C0 45.3736 13.0868 58.4604 29.2302 58.4604Z" fill="#E6E6E6"/>
<path d="M29.2306 53.5887C42.6834 53.5887 53.589 42.683 53.589 29.2302C53.589 15.7774 42.6834 4.8717 29.2306 4.8717C15.7777 4.8717 4.87207 15.7774 4.87207 29.2302C4.87207 42.683 15.7777 53.5887 29.2306 53.5887Z" fill="black"/>
<path d="M106.851 58.4604C122.995 58.4604 136.081 45.3736 136.081 29.2302C136.081 13.0868 122.995 0 106.851 0C90.7079 0 77.6211 13.0868 77.6211 29.2302C77.6211 45.3736 90.7079 58.4604 106.851 58.4604Z" fill="#E6E6E6"/>
<path d="M106.853 53.5887C120.305 53.5887 131.211 42.683 131.211 29.2302C131.211 15.7774 120.305 4.8717 106.853 4.8717C93.3998 4.8717 82.4941 15.7774 82.4941 29.2302C82.4941 42.683 93.3998 53.5887 106.853 53.5887Z" fill="white"/>
<path d="M184.474 58.4604C200.618 58.4604 213.705 45.3736 213.705 29.2302C213.705 13.0868 200.618 0 184.474 0C168.331 0 155.244 13.0868 155.244 29.2302C155.244 45.3736 168.331 58.4604 184.474 58.4604Z" fill="#E6E6E6"/>
<path d="M184.474 53.5887C197.927 53.5887 208.832 42.683 208.832 29.2302C208.832 15.7774 197.927 4.8717 184.474 4.8717C171.021 4.8717 160.115 15.7774 160.115 29.2302C160.115 42.683 171.021 53.5887 184.474 53.5887Z" fill="white"/>
<path d="M26.9704 39.2383L19.874 30.1144L24.0007 26.9044L27.3608 31.2247L38.7117 19.2427L42.5072 22.8387L26.9704 39.2383Z" fill="white"/>
<path d="M81.0261 35.1906C79.1065 30.5542 78.7948 26.1785 81.5009 22.2916C81.549 20.9856 81.8589 19.7025 82.4122 18.5185C82.9655 17.3345 83.7509 16.2737 84.722 15.399C85.693 14.5242 86.8298 13.8534 88.065 13.4264C89.3001 12.9993 90.6085 12.8246 91.9124 12.9127L93.6768 13.0319C95.4983 13.1502 97.2497 13.7789 98.7306 14.846C100.211 15.9132 101.362 17.3757 102.051 19.0661C105.341 27.2259 105.444 38.0707 104.623 49.6947H80.4922C81.9254 44.2586 82.6612 39.1566 81.0261 35.1906Z" fill="#2F2E41"/>
<path d="M49.8633 49.4155L43.4864 46.5509C42.8511 46.2655 42.2844 45.8468 41.825 45.3233C41.3656 44.7997 41.0241 44.1835 40.8237 43.5164C40.6233 42.8493 40.5686 42.1469 40.6634 41.4568C40.7581 40.7668 41.0002 40.1051 41.373 39.5168C41.7854 38.8661 42.3465 38.3228 43.0101 37.9317C43.6737 37.5405 44.4207 37.3127 45.1897 37.2671C45.9586 37.2214 46.7274 37.3592 47.4326 37.6691C48.1378 37.979 48.7593 38.4521 49.2457 39.0493L52.1918 42.6667L65.9264 54.8479L75.0563 48.7552L79.1941 55.7706L64.3842 64.7166L49.8633 49.4155Z" fill="#9F616A"/>
<path d="M78.5287 57.8342L73.4941 48.2007L93.0981 39.4688L93.2678 41.3115C93.424 43.0071 93.1343 44.7141 92.4274 46.2633C91.7206 47.8124 90.6211 49.15 89.238 50.1433L78.5287 57.8342Z" fill="black"/>
<path d="M103.933 38.8932L83.9391 55.4401L82.79 53.8314L88.3057 43.9492L90.8337 42.8001C91.4394 40.2339 89.8931 36.7927 87.846 33.1477L97.4984 31.7688C97.9643 34.8994 100.086 37.2847 103.933 38.8932Z" fill="#9F616A"/>
<path d="M128.064 153.113L124.732 158.054L98.1875 143.001L101.865 124.846L128.064 153.113Z" fill="#2F2E41"/>
<path d="M93.016 176.67L87.6153 174.256L86.2364 111.056L81.0654 76.6984L101.175 72.9064L105.311 81.8693C115.477 95.8121 100.658 138.533 93.016 176.67Z" fill="#2F2E41"/>
<path d="M93.4525 175.811L94.5606 178.223C94.7689 178.676 94.8684 179.171 94.8513 179.67C94.8343 180.168 94.7011 180.656 94.4624 181.094C94.2236 181.532 93.886 181.908 93.4763 182.192C93.0666 182.477 92.5961 182.662 92.1024 182.732L77.4515 184.825C76.7311 184.928 75.9979 184.767 75.3874 184.371C74.7769 183.975 74.3304 183.371 74.1305 182.671C73.9465 182.027 73.9825 181.34 74.2329 180.719C74.4832 180.098 74.9337 179.577 75.5129 179.241L87.8211 173.08L93.4525 175.811Z" fill="#2F2E41"/>
<path d="M127.378 152.179L130.025 151.985C130.522 151.949 131.021 152.029 131.482 152.219C131.943 152.409 132.353 152.705 132.68 153.082C133.007 153.458 133.241 153.906 133.364 154.39C133.487 154.873 133.496 155.378 133.389 155.866L130.224 170.323C130.068 171.034 129.661 171.664 129.076 172.097C128.492 172.531 127.77 172.738 127.045 172.68C126.377 172.628 125.746 172.353 125.251 171.901C124.757 171.45 124.427 170.846 124.315 170.185L122.85 156.5L127.378 152.179Z" fill="#2F2E41"/>
<path d="M91.2924 36.3652C96.3694 36.3652 100.485 32.2495 100.485 27.1725C100.485 22.0955 96.3694 17.9797 91.2924 17.9797C86.2153 17.9797 82.0996 22.0955 82.0996 27.1725C82.0996 32.2495 86.2153 36.3652 91.2924 36.3652Z" fill="#9F616A"/>
<path d="M100.716 74.2853L80.7216 78.4221L80.2619 65.0926C77.3667 62.0274 84.1191 49.7512 86.467 43.9492L89.4547 43.03L84.3987 52.2227L102.095 37.7441L105.542 38.6634L106.461 55.4402L100.716 74.2853Z" fill="black"/>
<path d="M102.094 82.329L97.7583 87.8126C97.3263 88.359 96.7819 88.8061 96.1619 89.1237C95.542 89.4412 94.861 89.6218 94.1652 89.6532C93.4693 89.6845 92.7749 89.5659 92.1289 89.3054C91.4829 89.0448 90.9004 88.6485 90.421 88.1432C89.8909 87.5844 89.5011 86.9075 89.284 86.1685C89.0668 85.4294 89.0285 84.6493 89.1721 83.8925C89.3157 83.1357 89.6372 82.4239 90.11 81.8158C90.5828 81.2077 91.1934 80.7207 91.8914 80.3949L96.119 78.4221L111.287 68.0802L107.61 57.7384L115.424 55.4402L120.48 71.9871L102.094 82.329Z" fill="#9F616A"/>
<path d="M102.899 47.8561H86.2436C86.8694 44.708 88.5471 41.852 93.1353 39.8043C96.4809 33.4101 97.9102 27.6103 93.1353 23.7351C87.6812 22.4786 85.5689 20.197 86.2436 17.0604L96.0069 15.4517C104.036 22.6024 104.128 34.8086 102.899 47.8561Z" fill="#2F2E41"/>
<path d="M117.262 56.5893L106.691 59.1173L103.014 37.974L104.842 38.2597C106.524 38.5226 108.109 39.2206 109.438 40.2846C110.768 41.3485 111.796 42.7415 112.421 44.3254L117.262 56.5893Z" fill="black"/>
</svg>
