<svg width="28" height="28" viewBox="0 0 28 28" fill="none" xmlns="http://www.w3.org/2000/svg">
<path d="M23.8973 4.10271C18.4274 -1.36719 9.57339 -1.36795 4.10273 4.10271C-1.36717 9.5726 -1.36799 18.4266 4.10273 23.8973C9.57262 29.3671 18.4266 29.368 23.8973 23.8973C29.3671 18.4274 29.3679 9.57342 23.8973 4.10271ZM11.2699 11.6459H9.91221C8.61417 11.6459 7.55811 12.702 7.55811 14C7.55811 15.298 8.61417 16.3541 9.91221 16.3541C10.5472 16.3541 11.0619 16.8688 11.0619 17.5038C11.0619 18.1387 10.5472 18.6535 9.91221 18.6535C7.3463 18.6535 5.25876 16.5659 5.25876 14C5.25876 11.4341 7.3463 9.34655 9.91221 9.34655H11.2699C10.9966 8.90343 11.051 8.31551 11.4352 7.93141C11.8841 7.48243 12.612 7.48243 13.061 7.93141C14.9376 9.80801 14.8657 9.72277 14.9561 9.85794C15.2654 10.3202 15.192 10.9302 14.8127 11.3094L13.061 13.061C12.8365 13.2856 12.5423 13.3978 12.2481 13.3978C11.3531 13.3978 10.7966 12.4135 11.2699 11.6459ZM18.0877 18.6535H16.7301C17.0033 19.0966 16.949 19.6845 16.5648 20.0686C16.1158 20.5176 15.3879 20.5176 14.9389 20.0686C13.0416 18.1713 13.1302 18.2711 13.0439 18.142C12.7324 17.6769 12.8107 17.067 13.1873 16.6906L14.9389 14.939C15.3879 14.49 16.1158 14.49 16.5648 14.939C16.949 15.3231 17.0033 15.911 16.7301 16.3541H18.0877C19.3857 16.3541 20.4418 15.298 20.4418 14C20.4418 12.702 19.3857 11.6459 18.0877 11.6459C17.4527 11.6459 16.938 11.1312 16.938 10.4962C16.938 9.86128 17.4527 9.34655 18.0877 9.34655C20.6536 9.34655 22.7411 11.4341 22.7411 14C22.7411 16.5659 20.6537 18.6535 18.0877 18.6535Z" fill="#24B9EA"/>
</svg>
