<svg width="38" height="38" viewBox="0 0 38 38" fill="none" xmlns="http://www.w3.org/2000/svg">
<rect width="38" height="38" rx="5" fill="white"/>
<path fill-rule="evenodd" clip-rule="evenodd" d="M14.3305 9.00037H23.6695C27.0705 9.00037 28.9905 10.9294 29.0005 14.3304V23.6704C29.0005 27.0704 27.0705 29.0004 23.6695 29.0004H14.3305C10.9295 29.0004 9.00049 27.0704 9.00049 23.6704V14.3304C9.00049 10.9294 10.9295 9.00037 14.3305 9.00037ZM19.0495 24.8604C19.4805 24.8604 19.8395 24.5404 19.8795 24.1104V13.9204C19.9195 13.6104 19.7705 13.2994 19.5005 13.1304C19.2195 12.9604 18.8795 12.9604 18.6105 13.1304C18.3395 13.2994 18.1905 13.6104 18.2195 13.9204V24.1104C18.2705 24.5404 18.6295 24.8604 19.0495 24.8604ZM23.6505 24.8604C24.0705 24.8604 24.4295 24.5404 24.4805 24.1104V20.8304C24.5095 20.5094 24.3605 20.2104 24.0895 20.0404C23.8205 19.8704 23.4805 19.8704 23.2005 20.0404C22.9295 20.2104 22.7805 20.5094 22.8205 20.8304V24.1104C22.8605 24.5404 23.2195 24.8604 23.6505 24.8604ZM15.2195 24.1104C15.1795 24.5404 14.8205 24.8604 14.3895 24.8604C13.9595 24.8604 13.5995 24.5404 13.5605 24.1104V17.2004C13.5305 16.8894 13.6795 16.5804 13.9505 16.4104C14.2195 16.2404 14.5605 16.2404 14.8305 16.4104C15.0995 16.5804 15.2505 16.8894 15.2195 17.2004V24.1104Z" fill="#24B9EA"/>
</svg>
