<svg width="13" height="13" viewBox="0 0 13 13" fill="none" xmlns="http://www.w3.org/2000/svg">
<path d="M9.27183 2.45336H2.02621C1.32004 2.45336 0.747574 3.02582 0.747574 3.732V10.9776C0.747574 11.6838 1.32004 12.2563 2.02621 12.2563H9.27183C9.97801 12.2563 10.5505 11.6838 10.5505 10.9776V3.732C10.5505 3.02582 9.97801 2.45336 9.27183 2.45336ZM9.69805 10.9776C9.69805 11.213 9.50723 11.4039 9.27183 11.4039H2.02621C1.79081 11.4039 1.59999 11.213 1.59999 10.9776V3.732C1.59999 3.4966 1.79081 3.30578 2.02621 3.30578H9.27183C9.50723 3.30578 9.69805 3.4966 9.69805 3.732V10.9776Z" fill="#EDF0F8"/>
<path d="M11.403 0.322323H3.73112C3.02495 0.322323 2.45248 0.894789 2.45248 1.60096C2.45248 1.83636 2.64331 2.02718 2.87871 2.02718C3.11411 2.02718 3.3049 1.83636 3.3049 1.60096C3.3049 1.36556 3.49572 1.17474 3.73112 1.17474H11.403C11.6384 1.17474 11.8292 1.36556 11.8292 1.60096V9.2728C11.8292 9.5082 11.6384 9.69902 11.403 9.69902C11.1676 9.69902 10.9767 9.88985 10.9767 10.1252C10.9767 10.3606 11.1676 10.5515 11.403 10.5515C12.1091 10.5515 12.6816 9.979 12.6816 9.27283V1.60096C12.6816 0.894789 12.1091 0.322323 11.403 0.322323Z" fill="#EDF0F8"/>
</svg>
