<svg width="38" height="38" viewBox="0 0 38 38" fill="none" xmlns="http://www.w3.org/2000/svg">
<rect width="38" height="38" rx="5" fill="white"/>
<path d="M23.7783 9H10.5805C9.15742 9 8 10.1574 8 11.5805V23.1458C8 23.6935 8.61945 24.0023 9.0567 23.6899L12.7322 21.0676C13.0406 20.8479 13.4034 20.7315 13.7822 20.7315H21.8663C23.2894 20.7315 24.4468 19.5741 24.4468 18.1511V9.66851C24.4468 9.29949 24.1473 9 23.7783 9ZM20.5311 17.0984H12.8071C12.438 17.0984 12.1385 16.7993 12.1385 16.4299C12.1385 16.0608 12.438 15.7614 12.8071 15.7614H20.5311C20.9001 15.7614 21.1996 16.0608 21.1996 16.4299C21.1996 16.7993 20.9001 17.0984 20.5311 17.0984ZM20.5311 13.9786H12.8071C12.438 13.9786 12.1385 13.6796 12.1385 13.3101C12.1385 12.9411 12.438 12.6416 12.8071 12.6416H20.5311C20.9001 12.6416 21.1996 12.9411 21.1996 13.3101C21.1996 13.6796 20.9001 13.9786 20.5311 13.9786Z" fill="#24B9EA"/>
<path d="M30.8184 16.766V28.3308C30.8184 28.8749 30.202 29.1896 29.7617 28.875L26.0862 26.2531C25.7778 26.0334 25.415 25.917 25.0362 25.917H16.952C15.529 25.917 14.3716 24.7592 14.3716 23.3361V22.0686H21.8661C24.0263 22.0686 25.7836 20.3113 25.7836 18.1511V14.1851H28.2379C29.661 14.1851 30.8184 15.3429 30.8184 16.766Z" fill="#24B9EA"/>
</svg>
