<svg width="18" height="16" viewBox="0 0 18 16" fill="none" xmlns="http://www.w3.org/2000/svg">
<path opacity="0.4" d="M13.629 4.08008C15.6715 4.08008 17.334 5.79657 17.334 7.90627V12.0999C17.334 14.2044 15.6757 15.9166 13.6373 15.9166L4.37398 15.9166C2.33065 15.9166 0.667316 14.201 0.667316 12.0913V7.89767C0.667316 5.79313 2.32648 4.08008 4.36565 4.08008H5.14898L13.629 4.08008Z" fill="#24B9EA"/>
<path d="M9.45592 11.3644L11.8801 8.89116C12.1301 8.63554 12.1301 8.22418 11.8784 7.9694C11.6268 7.71547 11.2209 7.71632 10.9709 7.97109L9.64342 9.32537L9.64342 0.735C9.64342 0.375269 9.35592 0.083252 9.00092 0.083252C8.64676 0.083252 8.36009 0.375269 8.36009 0.735L8.36009 9.32537L7.03176 7.97109C6.78176 7.71632 6.37592 7.71547 6.12426 7.9694C5.99842 8.09721 5.93509 8.26396 5.93509 8.43155C5.93509 8.59745 5.99842 8.76419 6.12259 8.89116L8.54676 11.3644C8.66759 11.4871 8.83092 11.5566 9.00092 11.5566C9.17176 11.5566 9.33509 11.4871 9.45592 11.3644Z" fill="#24B9EA"/>
</svg>
