<svg width="30" height="30" viewBox="0 0 30 30" fill="none" xmlns="http://www.w3.org/2000/svg">
<rect width="30" height="30" rx="3" fill="#F7F7F7"/>
<path opacity="0.4" d="M5 10.9159V19.0839C5 22.6229 7.276 24.9999 10.665 24.9999H19.335C22.724 24.9999 25 22.6229 25 19.0839V10.9159C25 7.37788 22.723 4.99988 19.334 4.99988H10.665C7.276 4.99988 5 7.37788 5 10.9159Z" fill="#3FC43C"/>
<path d="M10.7208 15.8553L14.4688 19.6203C14.7508 19.9033 15.2498 19.9033 15.5328 19.6203L19.2808 15.8553C19.5728 15.5613 19.5718 15.0863 19.2778 14.7943C18.9838 14.5023 18.5098 14.5023 18.2168 14.7963L15.7498 17.2733V10.9183C15.7498 10.5033 15.4138 10.1683 14.9998 10.1683C14.5858 10.1683 14.2498 10.5033 14.2498 10.9183V17.2733L11.7838 14.7963C11.6368 14.6493 11.4448 14.5763 11.2518 14.5763C11.0608 14.5763 10.8688 14.6493 10.7228 14.7943C10.4298 15.0863 10.4288 15.5613 10.7208 15.8553Z" fill="#3FC43C"/>
</svg>
