<svg width="38" height="38" viewBox="0 0 38 38" fill="none" xmlns="http://www.w3.org/2000/svg">
<rect width="38" height="38" rx="5" fill="white"/>
<rect width="24" height="24" transform="translate(7 7)" fill="white"/>
<path d="M28.3946 23.9131C26.8827 22.635 26.0157 20.767 26.0157 18.788V16C26.0157 12.4811 23.4017 9.56805 20.0157 9.08008V7.99994C20.0157 7.44696 19.5676 7 19.0156 7C18.4637 7 18.0156 7.44696 18.0156 7.99994V9.08008C14.6285 9.56805 12.0156 12.4811 12.0156 16V18.788C12.0156 20.767 11.1486 22.635 9.62756 23.921C9.23865 24.254 9.01562 24.738 9.01562 25.2499C9.01562 26.2151 9.8006 27.0001 10.7656 27.0001H27.2656C28.2307 27.0001 29.0157 26.2151 29.0157 25.2499C29.0157 24.738 28.7927 24.254 28.3946 23.9131Z" fill="#24B9EA"/>
<path d="M19.0178 31C20.8289 31 22.3439 29.7089 22.6918 28H15.3438C15.6918 29.7089 17.2068 31 19.0178 31Z" fill="#24B9EA"/>
</svg>
