<svg width="30" height="30" viewBox="0 0 30 30" fill="none" xmlns="http://www.w3.org/2000/svg">
<rect width="30" height="30" rx="3" fill="#F7F7F7"/>
<path opacity="0.4" d="M25 19.084V10.916C25 7.377 22.724 5 19.335 5H10.665C7.276 5 5 7.377 5 10.916V19.084C5 22.622 7.277 25 10.666 25H19.335C22.724 25 25 22.622 25 19.084Z" fill="#FF4B55"/>
<path d="M19.2792 14.1445L15.5312 10.3795C15.2492 10.0965 14.7502 10.0965 14.4672 10.3795L10.7192 14.1445C10.4272 14.4385 10.4282 14.9135 10.7222 15.2055C11.0162 15.4975 11.4902 15.4975 11.7832 15.2035L14.2502 12.7265V19.0815C14.2502 19.4965 14.5862 19.8315 15.0002 19.8315C15.4142 19.8315 15.7502 19.4965 15.7502 19.0815V12.7265L18.2162 15.2035C18.3632 15.3505 18.5552 15.4235 18.7482 15.4235C18.9392 15.4235 19.1312 15.3505 19.2772 15.2055C19.5702 14.9135 19.5712 14.4385 19.2792 14.1445Z" fill="#FF4B55"/>
</svg>
