<svg width="30" height="30" viewBox="0 0 30 30" fill="none" xmlns="http://www.w3.org/2000/svg">
<path opacity="0.4" d="M2.5 9.89488V20.1049C2.5 24.5286 5.345 27.4999 9.58125 27.4999H20.4188C24.655 27.4999 27.5 24.5286 27.5 20.1049V9.89488C27.5 5.47238 24.6537 2.49988 20.4175 2.49988H9.58125C5.345 2.49988 2.5 5.47238 2.5 9.89488Z" fill="#1F2E51"/>
<path d="M9.6509 16.0692L14.3359 20.7754C14.6884 21.1292 15.3122 21.1292 15.6659 20.7754L20.3509 16.0692C20.7159 15.7017 20.7147 15.1079 20.3471 14.7429C19.9797 14.3779 19.3871 14.3779 19.0209 14.7454L15.9372 17.8417V9.89795C15.9372 9.3792 15.5172 8.96045 14.9997 8.96045C14.4822 8.96045 14.0622 9.3792 14.0622 9.89795V17.8417L10.9797 14.7454C10.7959 14.5617 10.5559 14.4704 10.3147 14.4704C10.0759 14.4704 9.8359 14.5617 9.6534 14.7429C9.28715 15.1079 9.2859 15.7017 9.6509 16.0692Z" fill="#1F2E51"/>
</svg>
