<svg width="30" height="30" viewBox="0 0 30 30" fill="none" xmlns="http://www.w3.org/2000/svg">
<path opacity="0.4" d="M27.5 20.105L27.5 9.895C27.5 5.47125 24.655 2.5 20.4187 2.5L9.58125 2.5C5.345 2.5 2.5 5.47125 2.5 9.895L2.5 20.105C2.5 24.5275 5.34625 27.5 9.5825 27.5L20.4187 27.5C24.655 27.5 27.5 24.5275 27.5 20.105Z" fill="#1F2E51"/>
<path d="M20.3491 13.9307L15.6641 9.22443C15.3116 8.87068 14.6878 8.87068 14.3341 9.22443L9.6491 13.9307C9.2841 14.2982 9.28535 14.8919 9.65285 15.2569C10.0203 15.6219 10.6128 15.6219 10.9791 15.2544L14.0628 12.1582V20.1019C14.0628 20.6207 14.4828 21.0394 15.0003 21.0394C15.5178 21.0394 15.9378 20.6207 15.9378 20.1019V12.1582L19.0203 15.2544C19.2041 15.4382 19.4441 15.5294 19.6853 15.5294C19.9241 15.5294 20.1641 15.4382 20.3466 15.2569C20.7128 14.8919 20.7141 14.2982 20.3491 13.9307Z" fill="#1F2E51"/>
</svg>
