<svg width="30" height="30" viewBox="0 0 30 30" fill="none" xmlns="http://www.w3.org/2000/svg">
<path opacity="0.4" d="M9.12012 8.0575C9.12012 4.99375 11.6949 2.5 14.8594 2.5H21.1498C24.3066 2.5 26.8749 4.9875 26.8749 8.045V21.94C26.8749 25.005 24.3014 27.5 21.1369 27.5H14.8465C11.6897 27.5 9.12012 25.0112 9.12012 21.9525V20.7775V8.0575Z" fill="#1F2E51"/>
<path d="M20.0467 14.3172L16.3369 10.681C15.9534 10.306 15.3364 10.306 14.9542 10.6835C14.5733 11.061 14.5746 11.6697 14.9568 12.0447L16.9882 14.036H4.10262C3.56303 14.036 3.125 14.4672 3.125 14.9997C3.125 15.531 3.56303 15.961 4.10262 15.961H16.9882L14.9568 17.9535C14.5746 18.3285 14.5733 18.9372 14.9542 19.3147C15.1459 19.5035 15.3961 19.5985 15.6474 19.5985C15.8963 19.5985 16.1464 19.5035 16.3369 19.3172L20.0467 15.681C20.2308 15.4997 20.335 15.2547 20.335 14.9997C20.335 14.7435 20.2308 14.4985 20.0467 14.3172Z" fill="#1F2E51"/>
</svg>
