<svg width="30" height="30" viewBox="0 0 30 30" fill="none" xmlns="http://www.w3.org/2000/svg">
<path opacity="0.4" d="M17.1881 12.1288V9.60398C16.6925 9.60398 16.2814 9.20471 16.2814 8.72323V5.71695C16.2814 5.3165 15.955 5.00061 15.544 5.00061H7.23888C4.62766 5.00061 2.5 7.06626 2.5 9.60398V12.6443C2.5 12.8804 2.59671 13.1035 2.76596 13.2679C2.9352 13.4311 3.16489 13.5251 3.40667 13.5251C4.32544 13.5251 5.0266 14.1592 5.0266 14.993C5.0266 15.8632 4.31335 16.556 3.41876 16.5666C2.92311 16.5666 2.5 16.9071 2.5 17.4004V20.4078C2.5 22.9444 4.62766 24.9994 7.22679 24.9994H15.544C15.955 24.9994 16.2814 24.6812 16.2814 24.2831V21.7454C16.2814 21.2533 16.6925 20.8646 17.1881 20.8646V18.5876C16.6925 18.5876 16.2814 18.1872 16.2814 17.7069V13.0095C16.2814 12.5281 16.6925 12.1288 17.1881 12.1288Z" fill="#1F2E51"/>
<path d="M24.9733 14.9935C24.9733 15.8625 25.6986 16.5554 26.5811 16.5671C27.0768 16.5671 27.4999 16.9077 27.4999 17.3892V20.4072C27.4999 22.9449 25.3843 25 22.7731 25H18.8321C18.4332 25 18.0947 24.6818 18.0947 24.2825V21.7459C18.0947 21.2527 17.6957 20.8652 17.188 20.8652V18.5882C17.6957 18.5882 18.0947 18.1877 18.0947 17.7074V13.0101C18.0947 12.5274 17.6957 12.1294 17.188 12.1294V9.60337C17.6957 9.60337 18.0947 9.2041 18.0947 8.72262V5.71752C18.0947 5.31707 18.4332 5 18.8321 5H22.7731C25.3843 5 27.4999 7.05508 27.4999 9.59163V12.5509C27.4999 12.7858 27.4032 13.0101 27.2339 13.1733C27.0647 13.3377 26.835 13.4317 26.5932 13.4317C25.6986 13.4317 24.9733 14.1375 24.9733 14.9935Z" fill="#1F2E51"/>
</svg>
